<svg width="136" height="40" viewBox="0 0 136 40" fill="none" xmlns="http://www.w3.org/2000/svg">
<path d="M125.151 0.00013H10.8347C10.418 0.00013 10.0063 0.00013 9.59072 0.00213C9.24283 0.00413 8.89771 0.00994 8.54647 0.01483C7.78343 0.0227318 7.02218 0.0818063 6.26934 0.19154C5.51756 0.303663 4.78933 0.515046 4.10928 0.81854C3.43007 1.1246 2.80944 1.5223 2.26993 1.9972C1.72759 2.47077 1.27551 3.01815 0.931067 3.61829C0.585674 4.21724 0.346178 4.85907 0.220849 5.52161C0.0943293 6.18331 0.0262478 6.85265 0.0172157 7.52361C0.00667036 7.83021 0.00555674 8.13783 0 8.44447V31.5587C0.00555674 31.8692 0.00667036 32.17 0.0172157 32.4806C0.0262506 33.1516 0.0943321 33.8209 0.220849 34.4825C0.345831 35.1455 0.585342 35.7877 0.931067 36.3868C1.27535 36.985 1.7275 37.5302 2.26993 38.0011C2.8074 38.4781 3.42842 38.8761 4.10928 39.1798C4.78933 39.4841 5.51748 39.6968 6.26934 39.8106C7.02231 39.9195 7.78348 39.9786 8.54647 39.9874C8.89771 39.9942 9.24283 39.9981 9.59072 39.9981C10.0063 40.0001 10.418 40.0001 10.8347 40.0001H125.151C125.56 40.0001 125.975 40.0001 126.383 39.9981C126.729 39.9981 127.085 39.9942 127.431 39.9874C128.192 39.979 128.952 39.9199 129.703 39.8106C130.458 39.696 131.189 39.4834 131.872 39.1798C132.552 38.8759 133.173 38.478 133.71 38.0011C134.251 37.5283 134.704 36.9836 135.052 36.3868C135.395 35.7872 135.633 35.1451 135.756 34.4825C135.883 33.8208 135.953 33.1516 135.967 32.4806C135.971 32.17 135.971 31.8692 135.971 31.5587C135.98 31.1954 135.98 30.8341 135.98 30.4649V9.53626C135.98 9.17005 135.98 8.80677 135.971 8.44447C135.971 8.13783 135.971 7.83021 135.967 7.52357C135.953 6.85255 135.883 6.18337 135.756 5.52157C135.632 4.85941 135.395 4.21763 135.052 3.61825C134.351 2.41533 133.239 1.43616 131.872 0.81845C131.189 0.515697 130.458 0.30437 129.703 0.19145C128.952 0.0812328 128.192 0.0221378 127.431 0.01469C127.085 0.00981 126.729 0.00395 126.383 0.002C125.975 0 125.56 0 125.151 0V0.00013Z" fill="black" fill-opacity="0.4"/>
<path d="M9.50055 39.1251C9.15378 39.1251 8.81538 39.1212 8.47132 39.1144C7.75858 39.1063 7.04751 39.0517 6.34393 38.9513C5.68789 38.852 5.05235 38.6674 4.45829 38.4034C3.86968 38.1416 3.33282 37.7984 2.86828 37.3868C2.39701 36.9801 2.00466 36.5084 1.70677 35.9903C1.4056 35.4689 1.19718 34.91 1.08875 34.3331C0.971661 33.7132 0.908311 33.0864 0.899246 32.4581C0.89203 32.2472 0.882584 31.545 0.882584 31.545V8.44446C0.882584 8.44446 0.892645 7.75305 0.899303 7.54992C0.907983 6.9226 0.970965 6.29678 1.0877 5.67785C1.19633 5.09937 1.40492 4.53887 1.70625 4.01575C2.00304 3.49807 2.39322 3.02598 2.86164 2.6178C3.32955 2.20574 3.86812 1.86073 4.45774 1.59533C5.05043 1.33222 5.68476 1.14885 6.33948 1.05139C7.04537 0.949958 7.75891 0.895118 8.47412 0.887332L9.50111 0.875122H126.468L127.508 0.887822C128.216 0.895221 128.924 0.949572 129.623 1.05041C130.284 1.1491 130.925 1.33374 131.525 1.59826C132.706 2.13311 133.667 2.97929 134.273 4.01819C134.57 4.5377 134.775 5.09363 134.882 5.66711C135.001 6.29111 135.067 6.92186 135.08 7.55432C135.084 7.83752 135.084 8.14172 135.084 8.44446C135.093 8.81946 135.093 9.17639 135.093 9.53625V30.4649C135.093 30.8282 135.093 31.1827 135.084 31.5401C135.084 31.8653 135.084 32.1632 135.079 32.4698C135.066 33.091 135.001 33.7105 134.885 34.3233C134.778 34.9044 134.571 35.4676 134.27 35.9933C133.97 36.5057 133.58 36.9734 133.114 37.379C132.649 37.7928 132.111 38.1381 131.521 38.4015C130.924 38.6675 130.284 38.8529 129.623 38.9513C128.919 39.0523 128.208 39.1068 127.495 39.1144C127.162 39.1212 126.813 39.1251 126.474 39.1251L125.24 39.1271L9.50055 39.1251Z" fill="white"/>
<path d="M33.2707 19.8894C33.282 19.0215 33.5151 18.1705 33.9482 17.4155C34.3814 16.6606 35.0006 16.0264 35.7481 15.5717C35.2732 14.9008 34.6467 14.3487 33.9183 13.9592C33.19 13.5697 32.3798 13.3536 31.5523 13.328C29.7869 13.1447 28.0754 14.3729 27.1758 14.3729C26.2588 14.3729 24.8737 13.3462 23.3822 13.3765C22.4175 13.4074 21.4772 13.6849 20.6532 14.182C19.8291 14.6791 19.1492 15.3789 18.6799 16.2132C16.6467 19.6952 18.1633 24.8126 20.1109 27.6272C21.0853 29.0055 22.2242 30.545 23.7143 30.4904C25.1725 30.4305 25.7172 29.5706 27.4773 29.5706C29.2212 29.5706 29.7321 30.4904 31.2525 30.4557C32.8173 30.4305 33.8031 29.0713 34.7434 27.68C35.4435 26.698 35.9823 25.6126 36.3397 24.4641C35.4306 24.0838 34.6548 23.4472 34.1091 22.6337C33.5633 21.8202 33.2718 20.8658 33.2707 19.8894Z" fill="black"/>
<path d="M30.399 11.4769C31.2521 10.4639 31.6724 9.16172 31.5707 7.84705C30.2672 7.98246 29.0632 8.59866 28.1986 9.57287C27.7758 10.0488 27.452 10.6025 27.2457 11.2023C27.0394 11.802 26.9546 12.4362 26.9962 13.0684C27.6481 13.075 28.2931 12.9352 28.8825 12.6596C29.4719 12.3839 29.9904 11.9795 30.399 11.4769V11.4769Z" fill="black"/>
<path d="M50.7654 27.1398H45.9801L44.831 30.4963H42.8041L47.3366 18.0782H49.4425L53.975 30.4963H51.9136L50.7654 27.1398ZM46.4758 25.591H50.2689L48.399 20.1437H48.3466L46.4758 25.591Z" fill="black"/>
<path d="M63.7638 25.9699C63.7638 28.7834 62.2414 30.591 59.944 30.591C59.3621 30.6211 58.7833 30.4885 58.274 30.2084C57.7647 29.9283 57.3454 29.5119 57.0642 29.007H57.0207V33.4914H55.1419V21.4426H56.9605V22.9485H56.995C57.2892 22.446 57.7155 22.0318 58.2287 21.7499C58.7419 21.4681 59.3228 21.3291 59.9094 21.3479C62.2325 21.3479 63.7638 23.1643 63.7638 25.9699ZM61.8327 25.9699C61.8327 24.1369 60.875 22.9319 59.4139 22.9319C57.9784 22.9319 57.0128 24.1623 57.0128 25.9699C57.0128 27.7942 57.9784 29.0158 59.4139 29.0158C60.875 29.0158 61.8326 27.8196 61.8326 25.9699H61.8327Z" fill="black"/>
<path d="M73.8383 25.9699C73.8383 28.7834 72.3155 30.591 70.0181 30.591C69.4361 30.6211 68.8574 30.4885 68.348 30.2084C67.8387 29.9283 67.4195 29.5119 67.1382 29.007H67.0948V33.4914H65.216V21.4426H67.0345V22.9485H67.0691C67.3632 22.446 67.7896 22.0318 68.3028 21.7499C68.816 21.4681 69.3968 21.3291 69.9835 21.3479C72.3066 21.3479 73.8383 23.1643 73.8383 25.9699ZM71.9067 25.9699C71.9067 24.1369 70.9491 22.9319 69.4879 22.9319C68.0524 22.9319 67.0869 24.1623 67.0869 25.9699C67.0869 27.7942 68.0524 29.0158 69.4879 29.0158C70.9491 29.0158 71.9067 27.8196 71.9067 25.9699V25.9699Z" fill="black"/>
<path d="M80.4954 27.0363C80.6347 28.2678 81.8441 29.0763 83.4967 29.0763C85.0803 29.0763 86.2196 28.2677 86.2196 27.1574C86.2196 26.1935 85.5325 25.6164 83.9055 25.2208L82.2785 24.8331C79.9732 24.2824 78.903 23.2159 78.903 21.4855C78.903 19.3429 80.7906 17.8712 83.4701 17.8712C86.1239 17.8712 87.9424 19.3429 88.0036 21.4855H86.1071C85.9935 20.2462 84.9579 19.4982 83.4444 19.4982C81.9309 19.4982 80.8953 20.255 80.8953 21.3566C80.8953 22.2345 81.5568 22.7511 83.1749 23.1466L84.558 23.4825C87.1338 24.0851 88.203 25.1085 88.203 26.9249C88.203 29.2481 86.3331 30.7032 83.3575 30.7032C80.5734 30.7032 78.6936 29.2823 78.5722 27.0362L80.4954 27.0363Z" fill="black"/>
<path d="M92.2597 19.2999V21.4425H94.0003V22.9142H92.2597V27.9054C92.2597 28.6808 92.6082 29.0421 93.3733 29.0421C93.58 29.0386 93.7863 29.0242 93.9914 28.9991V30.462C93.6474 30.5256 93.2977 30.5544 92.9478 30.5479C91.0947 30.5479 90.372 29.8595 90.372 28.1036V22.9142H89.0412V21.4425H90.372V19.2999H92.2597Z" fill="black"/>
<path d="M95.0073 25.97C95.0073 23.1213 96.7034 21.3313 99.3483 21.3313C102.002 21.3313 103.69 23.1213 103.69 25.97C103.69 28.8264 102.011 30.6086 99.3483 30.6086C96.6866 30.6086 95.0073 28.8264 95.0073 25.97ZM101.776 25.97C101.776 24.0159 100.871 22.8625 99.3483 22.8625C97.8259 22.8625 96.9206 24.0247 96.9206 25.97C96.9206 27.9319 97.8259 29.0764 99.3483 29.0764C100.871 29.0764 101.776 27.9319 101.776 25.97H101.776Z" fill="black"/>
<path d="M105.239 21.4425H107.031V22.9835H107.075C107.196 22.5022 107.481 22.0769 107.882 21.779C108.283 21.4811 108.775 21.3288 109.276 21.3478C109.493 21.347 109.709 21.3703 109.92 21.4171V23.1554C109.647 23.0728 109.361 23.0348 109.076 23.0431C108.803 23.0321 108.531 23.0797 108.278 23.1826C108.026 23.2855 107.799 23.4412 107.613 23.6391C107.427 23.837 107.286 24.0724 107.201 24.3291C107.115 24.5857 107.087 24.8576 107.118 25.1261V30.4962H105.239L105.239 21.4425Z" fill="black"/>
<path d="M118.582 27.837C118.329 29.4806 116.711 30.6085 114.641 30.6085C111.978 30.6085 110.326 28.8439 110.326 26.0128C110.326 23.173 111.987 21.3312 114.562 21.3312C117.094 21.3312 118.687 23.0519 118.687 25.797V26.4337H112.222V26.546C112.192 26.8792 112.235 27.2149 112.346 27.5307C112.457 27.8466 112.635 28.1353 112.868 28.3779C113.101 28.6204 113.384 28.8112 113.697 28.9375C114.01 29.0638 114.347 29.1228 114.684 29.1105C115.128 29.1516 115.574 29.0499 115.955 28.8205C116.336 28.591 116.631 28.2461 116.798 27.837L118.582 27.837ZM112.231 25.1349H116.807C116.824 24.8353 116.778 24.5355 116.672 24.2543C116.566 23.9731 116.403 23.7165 116.192 23.5008C115.981 23.285 115.728 23.1147 115.447 23.0004C115.167 22.8862 114.865 22.8306 114.562 22.837C114.256 22.8352 113.953 22.8934 113.67 23.0081C113.387 23.1229 113.129 23.2919 112.913 23.5056C112.696 23.7192 112.524 23.9732 112.407 24.2528C112.29 24.5325 112.23 24.8323 112.231 25.1349V25.1349Z" fill="black"/>
<path d="M45.2408 8.73114C45.6347 8.70318 46.0299 8.76204 46.398 8.90347C46.7661 9.0449 47.0979 9.26538 47.3694 9.54901C47.641 9.83263 47.8455 10.1723 47.9682 10.5436C48.0909 10.9149 48.1288 11.3085 48.0792 11.696C48.0792 13.6022 47.0376 14.698 45.2408 14.698H43.0619V8.73114H45.2408ZM43.9988 13.8541H45.1361C45.4176 13.8708 45.6992 13.8251 45.9606 13.7205C46.222 13.6159 46.4565 13.455 46.6471 13.2494C46.8376 13.0438 46.9794 12.7988 47.0622 12.5322C47.145 12.2656 47.1666 11.9841 47.1255 11.7081C47.1636 11.4333 47.1398 11.1535 47.0557 10.8889C46.9717 10.6242 46.8295 10.3812 46.6394 10.1773C46.4493 9.97334 46.2159 9.81353 45.956 9.7093C45.6961 9.60506 45.4161 9.55897 45.1361 9.57435H43.9988V13.8541Z" fill="black"/>
<path d="M49.1375 12.4445C49.1089 12.1486 49.1431 11.85 49.238 11.568C49.3329 11.2859 49.4863 11.0266 49.6884 10.8066C49.8905 10.5866 50.1369 10.4108 50.4118 10.2906C50.6866 10.1703 50.9838 10.1082 51.2843 10.1082C51.5849 10.1082 51.8821 10.1703 52.1569 10.2906C52.4317 10.4108 52.6781 10.5866 52.8802 10.8066C53.0824 11.0266 53.2358 11.2859 53.3307 11.568C53.4255 11.85 53.4598 12.1486 53.4311 12.4445C53.4603 12.7408 53.4265 13.0397 53.3319 13.3223C53.2373 13.6048 53.0839 13.8646 52.8817 14.085C52.6796 14.3054 52.433 14.4816 52.1579 14.6021C51.8828 14.7226 51.5852 14.7849 51.2843 14.7849C50.9834 14.7849 50.6859 14.7226 50.4108 14.6021C50.1357 14.4816 49.8891 14.3054 49.6869 14.085C49.4847 13.8646 49.3314 13.6048 49.2368 13.3223C49.1422 13.0397 49.1084 12.7408 49.1375 12.4445V12.4445ZM52.5071 12.4445C52.5071 11.4685 52.0638 10.8977 51.2858 10.8977C50.5049 10.8977 50.0656 11.4685 50.0656 12.4445C50.0656 13.4284 50.5049 13.9948 51.2858 13.9948C52.0638 13.9948 52.5071 13.4245 52.5071 12.4445H52.5071Z" fill="black"/>
<path d="M59.1385 14.6979H58.2065L57.2657 11.3815H57.1946L56.2577 14.6979H55.3346L54.0798 10.1949H54.991L55.8065 13.6309H55.8736L56.8096 10.1949H57.6715L58.6074 13.6309H58.6785L59.49 10.1949H60.3884L59.1385 14.6979Z" fill="black"/>
<path d="M61.4438 10.195H62.3086V10.9103H62.3758C62.4897 10.6534 62.6817 10.438 62.9253 10.2942C63.1688 10.1504 63.4516 10.0853 63.7342 10.1081C63.9557 10.0916 64.1782 10.1246 64.385 10.2047C64.5918 10.2848 64.7778 10.4099 64.9291 10.5708C65.0805 10.7316 65.1933 10.9241 65.2592 11.1339C65.3251 11.3437 65.3424 11.5655 65.3099 11.7829V14.6979H64.4115V12.006C64.4115 11.2824 64.0936 10.9225 63.4292 10.9225C63.2788 10.9156 63.1287 10.9409 62.9891 10.9968C62.8495 11.0526 62.7238 11.1376 62.6206 11.246C62.5173 11.3544 62.439 11.4836 62.3909 11.6247C62.3429 11.7658 62.3263 11.9156 62.3422 12.0636V14.6979H61.4438L61.4438 10.195Z" fill="black"/>
<path d="M66.7415 8.43713H67.6399V14.6979H66.7415V8.43713Z" fill="black"/>
<path d="M68.8888 12.4445C68.8602 12.1486 68.8944 11.85 68.9893 11.5679C69.0842 11.2858 69.2376 11.0265 69.4398 10.8065C69.6419 10.5865 69.8883 10.4107 70.1632 10.2904C70.438 10.1702 70.7353 10.108 71.0358 10.108C71.3364 10.108 71.6336 10.1702 71.9084 10.2904C72.1833 10.4107 72.4297 10.5865 72.6318 10.8065C72.834 11.0265 72.9874 11.2858 73.0823 11.5679C73.1772 11.85 73.2115 12.1486 73.1829 12.4445C73.212 12.7407 73.1781 13.0397 73.0835 13.3222C72.9889 13.6048 72.8355 13.8646 72.6333 14.085C72.4311 14.3054 72.1845 14.4815 71.9094 14.602C71.6343 14.7226 71.3367 14.7848 71.0358 14.7848C70.7349 14.7848 70.4374 14.7226 70.1622 14.602C69.8871 14.4815 69.6405 14.3054 69.4383 14.085C69.2361 13.8646 69.0828 13.6048 68.9881 13.3222C68.8935 13.0397 68.8596 12.7407 68.8888 12.4445V12.4445ZM72.2583 12.4445C72.2583 11.4684 71.815 10.8976 71.037 10.8976C70.2561 10.8976 69.8168 11.4684 69.8168 12.4445C69.8168 13.4284 70.2562 13.9948 71.037 13.9948C71.815 13.9948 72.2583 13.4245 72.2583 12.4445H72.2583Z" fill="black"/>
<path d="M74.1287 13.4244C74.1287 12.6139 74.7388 12.1466 75.8218 12.0802L77.0549 12.0099V11.6212C77.0549 11.1456 76.737 10.8771 76.1229 10.8771C75.6214 10.8771 75.2739 11.0592 75.1742 11.3776H74.3044C74.3962 10.6041 75.1317 10.108 76.1644 10.108C77.3057 10.108 77.9494 10.67 77.9494 11.6212V14.6979H77.0845V14.0651H77.0135C76.8692 14.2921 76.6666 14.4771 76.4263 14.6013C76.1861 14.7255 75.9169 14.7844 75.6461 14.7721C75.455 14.7917 75.2618 14.7716 75.0791 14.7129C74.8963 14.6542 74.7281 14.5582 74.5851 14.4313C74.4421 14.3043 74.3277 14.1491 74.249 13.9757C74.1704 13.8023 74.1294 13.6145 74.1287 13.4244V13.4244ZM77.0549 13.0397V12.6632L75.9433 12.7335C75.3163 12.775 75.032 12.986 75.032 13.3829C75.032 13.7882 75.3874 14.024 75.8762 14.024C76.0194 14.0384 76.164 14.0241 76.3015 13.982C76.439 13.9399 76.5665 13.8709 76.6765 13.779C76.7865 13.6872 76.8767 13.5744 76.9417 13.4474C77.0067 13.3204 77.0452 13.1817 77.0549 13.0397V13.0397Z" fill="black"/>
<path d="M79.1302 12.4445C79.1302 11.0216 79.8696 10.1203 81.0198 10.1203C81.3043 10.1073 81.5866 10.1747 81.8339 10.3146C82.0811 10.4545 82.2829 10.6611 82.4158 10.9103H82.4829V8.43713H83.3813V14.6979H82.5204V13.9864H82.4494C82.3062 14.2339 82.0973 14.438 81.8453 14.5765C81.5934 14.7149 81.3079 14.7826 81.0198 14.7721C79.8617 14.7721 79.1302 13.8707 79.1302 12.4445ZM80.0582 12.4445C80.0582 13.3996 80.5134 13.9743 81.2745 13.9743C82.0318 13.9743 82.4997 13.3913 82.4997 12.4484C82.4997 11.5099 82.0268 10.9186 81.2745 10.9186C80.5183 10.9186 80.0582 11.4972 80.0582 12.4445H80.0582Z" fill="black"/>
<path d="M87.0984 12.4445C87.0698 12.1486 87.104 11.85 87.1989 11.568C87.2937 11.2859 87.4472 11.0266 87.6493 10.8066C87.8514 10.5866 88.0978 10.4108 88.3726 10.2906C88.6475 10.1703 88.9447 10.1082 89.2452 10.1082C89.5457 10.1082 89.8429 10.1703 90.1178 10.2906C90.3926 10.4108 90.639 10.5866 90.8411 10.8066C91.0432 11.0266 91.1967 11.2859 91.2915 11.568C91.3864 11.85 91.4206 12.1486 91.392 12.4445C91.4212 12.7408 91.3874 13.0397 91.2927 13.3223C91.1981 13.6048 91.0448 13.8646 90.8426 14.085C90.6404 14.3054 90.3939 14.4816 90.1187 14.6021C89.8436 14.7226 89.5461 14.7849 89.2452 14.7849C88.9443 14.7849 88.6468 14.7226 88.3716 14.6021C88.0965 14.4816 87.85 14.3054 87.6478 14.085C87.4456 13.8646 87.2923 13.6048 87.1977 13.3223C87.103 13.0397 87.0692 12.7408 87.0984 12.4445V12.4445ZM90.4679 12.4445C90.4679 11.4685 90.0246 10.8977 89.2467 10.8977C88.4658 10.8977 88.0265 11.4685 88.0265 12.4445C88.0265 13.4284 88.4658 13.9948 89.2467 13.9948C90.0246 13.9948 90.4679 13.4245 90.4679 12.4445Z" fill="black"/>
<path d="M92.5975 10.195H93.4623V10.9103H93.5294C93.6433 10.6534 93.8354 10.438 94.0789 10.2942C94.3224 10.1504 94.6052 10.0853 94.8879 10.1081C95.1094 10.0916 95.3318 10.1246 95.5387 10.2047C95.7455 10.2848 95.9315 10.4099 96.0828 10.5708C96.2341 10.7316 96.3469 10.9241 96.4128 11.1339C96.4788 11.3437 96.4961 11.5655 96.4636 11.7829V14.6979H95.5652V12.006C95.5652 11.2824 95.2473 10.9225 94.5829 10.9225C94.4325 10.9156 94.2823 10.9409 94.1428 10.9968C94.0032 11.0526 93.8775 11.1376 93.7742 11.246C93.671 11.3544 93.5927 11.4836 93.5446 11.6247C93.4966 11.7658 93.4799 11.9156 93.4959 12.0636V14.6979H92.5975V10.195Z" fill="black"/>
<path d="M101.54 9.07385V10.2155H102.526V10.964H101.54V13.2794C101.54 13.7511 101.737 13.9576 102.184 13.9576C102.298 13.9573 102.413 13.9504 102.526 13.9371V14.6774C102.365 14.7059 102.202 14.7211 102.038 14.7228C101.039 14.7228 100.641 14.3751 100.641 13.507V10.964H99.918V10.2154H100.641V9.07385H101.54Z" fill="black"/>
<path d="M103.754 8.43713H104.644V10.9186H104.715C104.835 10.6593 105.032 10.4427 105.28 10.2983C105.529 10.154 105.816 10.0889 106.103 10.1119C106.324 10.1001 106.544 10.1365 106.748 10.2185C106.953 10.3006 107.136 10.4262 107.286 10.5866C107.436 10.7469 107.548 10.938 107.615 11.1461C107.681 11.3542 107.7 11.5743 107.671 11.7907V14.6979H106.772V12.0099C106.772 11.2906 106.433 10.9264 105.798 10.9264C105.644 10.9139 105.488 10.9349 105.343 10.9879C105.198 11.041 105.066 11.1248 104.957 11.2335C104.848 11.3423 104.764 11.4733 104.711 11.6174C104.658 11.7616 104.638 11.9153 104.652 12.068V14.6979H103.754L103.754 8.43713Z" fill="black"/>
<path d="M112.909 13.482C112.787 13.8935 112.523 14.2495 112.162 14.4877C111.802 14.7258 111.368 14.831 110.937 14.7847C110.637 14.7926 110.339 14.7357 110.063 14.6182C109.788 14.5007 109.542 14.3253 109.342 14.1041C109.141 13.883 108.992 13.6214 108.905 13.3376C108.817 13.0538 108.793 12.7545 108.834 12.4605C108.794 12.1656 108.819 11.8657 108.906 11.581C108.994 11.2964 109.142 11.0336 109.341 10.8105C109.54 10.5874 109.785 10.4093 110.06 10.2881C110.334 10.1669 110.632 10.1054 110.933 10.108C112.2 10.108 112.964 10.964 112.964 12.378V12.6881H109.749V12.7379C109.735 12.9031 109.756 13.0694 109.811 13.2262C109.866 13.3829 109.953 13.5267 110.067 13.6481C110.181 13.7696 110.32 13.8661 110.474 13.9315C110.628 13.9969 110.794 14.0297 110.962 14.0279C111.176 14.0534 111.394 14.0151 111.587 13.9179C111.78 13.8207 111.939 13.669 112.045 13.482L112.909 13.482ZM109.749 12.0308H112.049C112.06 11.8797 112.039 11.7279 111.988 11.5852C111.936 11.4425 111.855 11.312 111.749 11.2021C111.644 11.0923 111.516 11.0055 111.375 10.9473C111.233 10.8891 111.081 10.8609 110.928 10.8643C110.773 10.8624 110.618 10.8913 110.474 10.9492C110.331 11.0072 110.2 11.093 110.09 11.2017C109.98 11.3104 109.893 11.4398 109.835 11.5822C109.776 11.7246 109.747 11.8771 109.749 12.0308H109.749Z" fill="black"/>
</svg>

