<?xml version="1.0" encoding="UTF-8"?>
<svg width="24px" height="24px" viewBox="0 0 24 24" version="1.1" xmlns="http://www.w3.org/2000/svg" xmlns:xlink="http://www.w3.org/1999/xlink">
    <!-- Generator: Sketch 49.3 (51167) - http://www.bohemiancoding.com/sketch -->
    <title>iconTrashCan@2x</title>
    <desc>Created with Sketch.</desc>
    <defs></defs>
    <g id="iconTrashCan" stroke="none" stroke-width="1" fill="none" fill-rule="evenodd">
        <g id="Group">
            <path d="M9,6 L9,5 C9,4.44771525 9.44771525,4 10,4 L15,4 C15.5522847,4 16,4.44771525 16,5 L16,6 L19,6 L19,7 L6,7 L6,6 L9,6 Z M7,8 L18,8 L18,19 C18,19.5522847 17.5522847,20 17,20 L8,20 C7.44771525,20 7,19.5522847 7,19 L7,8 Z M9,10 L9,18 L10,18 L10,10 L9,10 Z M12,10 L12,18 L13,18 L13,10 L12,10 Z M15,10 L15,18 L16,18 L16,10 L15,10 Z" id="Combined-Shape" fill="#BDBBFF"></path>
            <rect id="Rectangle-36" x="0" y="0" width="24" height="24"></rect>
        </g>
    </g>
</svg>