<svg width="16" height="16" viewBox="0 0 16 16" fill="none" xmlns="http://www.w3.org/2000/svg">
<path fill-rule="evenodd" clip-rule="evenodd" d="M8 0C3.582 0 0 3.582 0 8C0 12.418 3.582 16 8 16C12.418 16 16 12.418 16 8C16 3.582 12.418 0 8 0ZM12.8595 12.8595C12.2286 13.4904 11.4928 13.9867 10.674 14.3327C9.82857 14.6912 8.92837 14.8728 8 14.8728C7.07162 14.8728 6.17142 14.6912 5.32446 14.3327C4.50567 13.9867 3.77142 13.4904 3.13894 12.8595C2.50802 12.2286 2.01174 11.4928 1.66575 10.674C1.3088 9.82857 1.1272 8.92837 1.1272 8C1.1272 7.07162 1.3088 6.17142 1.66731 5.32446C2.0133 4.50567 2.50958 3.77142 3.1405 3.13894C3.77142 2.50802 4.50724 2.01174 5.32602 1.66575C6.17142 1.3088 7.07162 1.1272 8 1.1272C8.92837 1.1272 9.82857 1.3088 10.6755 1.66731C11.4943 2.0133 12.2286 2.50958 12.8611 3.1405C13.492 3.77142 13.9883 4.50724 14.3342 5.32602C14.6912 6.17142 14.8728 7.07162 14.8728 8C14.8728 8.92837 14.6912 9.82857 14.3327 10.6755C13.9867 11.4928 13.492 12.2286 12.8595 12.8595ZM6.57065 3.91071L11.1249 7.78547C11.2579 7.90288 11.2579 8.09545 11.1249 8.21286L6.57065 12.0876C6.50489 12.1471 6.42505 12.1722 6.34677 12.1722C6.17769 12.1722 6.01801 12.0532 6.01801 11.8747V4.12363C6.01801 3.94359 6.17769 3.82617 6.34677 3.82617C6.42505 3.82617 6.50489 3.85279 6.57065 3.91071Z" fill="white"/>
</svg>
