<?xml version="1.0" encoding="UTF-8"?>
<svg width="24px" height="24px" viewBox="0 0 24 24" version="1.1" xmlns="http://www.w3.org/2000/svg" xmlns:xlink="http://www.w3.org/1999/xlink">
    <!-- Generator: Sketch 56.2 (81672) - https://sketch.com -->
    <title>viewIconTimePicker</title>
    <desc>Created with Sketch.</desc>
    <g id="viewIconTimePicker" stroke="none" stroke-width="1" fill="none" fill-rule="evenodd">
        <path d="M12,20 C9.041,20 6.463,18.389 5.079,16 C4.396,14.822 4,13.459 4,12 C4,7.582 7.582,4 12,4 C14.393,4 16.534,5.056 18,6.721 C19.241,8.13 20,9.975 20,12 C20,13.459 19.604,14.822 18.921,16 C17.537,18.389 14.959,20 12,20 Z M20.3333333,6.47666667 C19.4808333,5.1925 18.3366667,4.12333333 17,3.34916667 C15.5275,2.49583333 13.8233333,2 12,2 C9.435,2 7.10333333,2.97416667 5.33333333,4.56166667 C4.55,5.26333333 3.87916667,6.08416667 3.34916667,7 C2.49583333,8.4725 2,10.1766667 2,12 C2,13.17 2.21166667,14.2891667 2.58083333,15.3333333 C3.95583333,19.2141667 7.6475,22 12,22 C17.5225,22 22,17.5225 22,12 C22,9.9575 21.385,8.05916667 20.3333333,6.47666667 L20.3333333,6.47666667 Z" id="Fill-9" fill="#948FFE"></path>
        <path d="M13,11.7585321 L16.4366525,13.7349369 L15.3768139,15.4310331 L11,13 L11,8 L13,8 L13,11.7585321 Z" id="Combined-Shape" fill="#948FFE"></path>
    </g>
</svg>