<?xml version="1.0" encoding="UTF-8"?>
<svg width="24px" height="24px" viewBox="0 0 24 24" version="1.1" xmlns="http://www.w3.org/2000/svg" xmlns:xlink="http://www.w3.org/1999/xlink">
    <!-- Generator: Sketch 48.1 (47250) - http://www.bohemiancoding.com/sketch -->
    <title>viewIconListView</title>
    <desc>Created with Sketch.</desc>
    <defs></defs>
    <g id="Page-1" stroke="none" stroke-width="1" fill="none" fill-rule="evenodd">
        <g id="viewIconListView" fill="#948FFE">
            <path d="M22,7 L6,7 L6,5 L22,5 L22,7 Z M4,7 L2,7 L2,5 L4,5 L4,7 Z M22,13 L6,13 L6,11 L22,11 L22,13 Z M4,13 L2,13 L2,11 L4,11 L4,13 Z M22,19 L6,19 L6,17 L22,17 L22,19 Z M4,19 L2,19 L2,17 L4,17 L4,19 Z" id="Combined-Shape"></path>
        </g>
    </g>
</svg>