<?xml version="1.0" encoding="UTF-8"?>
<svg width="24px" height="24px" viewBox="0 0 24 24" version="1.1" xmlns="http://www.w3.org/2000/svg" xmlns:xlink="http://www.w3.org/1999/xlink">
    <!-- Generator: Sketch 49.3 (51167) - http://www.bohemiancoding.com/sketch -->
    <title>viewIconSlider</title>
    <desc>Created with Sketch.</desc>
    <defs>
        <path d="M0,0 L9,0 C9.55228475,-1.01453063e-16 10,0.44771525 10,1 L10,1 C10,1.55228475 9.55228475,2 9,2 L0,2 L0,0 Z" id="path-1"></path>
        <path d="M1,0 L6,0 L6,2 L1,2 C0.44771525,2 6.76353751e-17,1.55228475 0,1 L0,1 C-6.76353751e-17,0.44771525 0.44771525,1.01453063e-16 1,0 Z" id="path-3"></path>
    </defs>
    <g id="viewIconSlider" stroke="none" stroke-width="1" fill="none" fill-rule="evenodd">
        <g id="Rectangle" transform="translate(12.000000, 10.000000)">
            <mask id="mask-2" fill="white">
                <use xlink:href="#path-1"></use>
            </mask>
            <use id="Mask" fill="#948FFE" xlink:href="#path-1"></use>
            <polygon fill="#D7D5FF" mask="url(#mask-2)" points="0 -3 11 -3 11 6 0 6"></polygon>
        </g>
        <g id="Rectangle" transform="translate(2.000000, 10.000000)">
            <mask id="mask-4" fill="white">
                <use xlink:href="#path-3"></use>
            </mask>
            <use id="Mask" fill="#948FFE" xlink:href="#path-3"></use>
        </g>
        <g id="Group" transform="translate(7.000000, 8.000000)" fill="#948FFE">
            <path d="M3,6 C1.3472,6 0,4.6528 0,3 C0,1.3472 1.3472,0 3,0 C4.6536,0 6,1.3472 6,3 C6,4.6528 4.6536,6 3,6 Z M3,5 C4.1024,5 5,4.10186667 5,3 C5,1.89813333 4.1024,1 3,1 C1.89813333,1 1,1.89813333 1,3 C1,4.10186667 1.89813333,5 3,5 Z" id="Combined-Shape"></path>
        </g>
    </g>
</svg>