<?xml version="1.0" encoding="UTF-8"?>
<svg width="24px" height="24px" viewBox="0 0 24 24" version="1.1" xmlns="http://www.w3.org/2000/svg" xmlns:xlink="http://www.w3.org/1999/xlink">
    <!-- Generator: Sketch 58 (84663) - https://sketch.com -->
    <title>viewIconVideo</title>
    <desc>Created with Sketch.</desc>
    <g id="viewIconVideo" stroke="none" stroke-width="1" fill="none" fill-rule="evenodd">
        <g id="noun_Video_1556560" transform="translate(9.000000, 8.000000)" fill="#948FFE" fill-rule="nonzero">
            <g id="Group">
                <path d="M-1.3182776e-06,0.837314109 L-1.3182776e-06,8.15390312 C-0.00084173857,8.60028516 0.351284038,8.97018396 0.803659134,8.99812396 C0.975304551,9.00941018 1.14642791,8.96958178 1.29478312,8.88381645 L7.58117016,5.22552617 C7.84087113,5.07329546 7.99999868,4.79764758 7.99999868,4.50001263 C7.99999868,4.20237769 7.84087113,3.92672981 7.58117016,3.7744991 L1.29478312,0.116208813 C1.14643103,0.0304336835 0.975307476,-0.00940457009 0.803659134,0.00187317095 C0.354701073,0.0295866725 0.00384347308,0.39432019 -1.3182776e-06,0.837314109 Z M2,3 L5,4.5 L2,6 L2,3 Z" id="Shape"></path>
            </g>
        </g>
        <path d="M21.008845,4 C22.1085295,4 23,4.89005841 23,6.00010618 L23,18.9998938 C23,20.104522 22.1103261,21 21.008845,21 L2.991155,21 C1.89147046,21 1,20.1099416 1,18.9998938 L1,6.00010618 C1,4.89547804 1.88967395,4 2.991155,4 L21.008845,4 Z M21,6 L3,6 L3,19 L21,19 L21,6 Z" id="Combined-Shape" fill="#948FFE"></path>
    </g>
</svg>