<?xml version="1.0" encoding="UTF-8"?>
<svg width="24px" height="24px" viewBox="0 0 24 24" version="1.1" xmlns="http://www.w3.org/2000/svg" xmlns:xlink="http://www.w3.org/1999/xlink">
    <!-- Generator: Sketch 56.2 (81672) - https://sketch.com -->
    <title>viewIconCanvas</title>
    <desc>Created with Sketch.</desc>
    <g id="viewIconCanvas" stroke="none" stroke-width="1" fill="none" fill-rule="evenodd">
        <path d="M21.9995347,5.03116995 C21.9997917,4.4756938 21.5493511,4.0253914 20.9992948,4.0253914 L19.270939,4.0253914 L14,4.0253914 L13,0.989379883 L11,0.989379883 L9.97473145,4.0253914 L2.99388095,4.0253914 C2.44497566,4.0253914 1.99979267,4.47355169 1.99953471,5.03116995 L1.9935378,17.9942215 C1.99328083,18.5496976 2.43740392,19 2.99426523,19 L7,19 L6,22 L8,22 L8.97473145,19 L15,19 L16,22 L18,22 L17,19 L20.9946502,19 C21.5460636,19 21.9932798,18.5518397 21.9935378,17.9942215 L21.9995347,5.03116995 Z M4,17 L4,6 L20,6 L20,17 L4,17 Z" id="Page-1" fill="#948FFE"></path>
    </g>
</svg>