<?xml version="1.0" encoding="UTF-8"?>
<svg width="24px" height="24px" viewBox="0 0 24 24" version="1.1" xmlns="http://www.w3.org/2000/svg" xmlns:xlink="http://www.w3.org/1999/xlink">
    <!-- Generator: Sketch 48.1 (47250) - http://www.bohemiancoding.com/sketch -->
    <title>viewIconCameraRoll</title>
    <desc>Created with Sketch.</desc>
    <defs></defs>
    <g id="Page-1" stroke="none" stroke-width="1" fill="none" fill-rule="evenodd">
        <g id="viewIconCameraRoll" fill="#948FFE" fill-rule="nonzero">
            <path d="M20,6 L20,20 L5,20 L5,22 L21,22 C21.5522847,22 22,21.5522847 22,21 L22,6 L20,6 Z M19,3 L19,18 C19,18.5522847 18.5522847,19 18,19 L3,19 L3,17 L17,17 L17,3 L19,3 Z M3,16 C2.44771525,16 2,15.5522847 2,15 L2,3 C2,2.44771525 2.44771525,2 3,2 L15,2 C15.5522847,2 16,2.44771525 16,3 L16,15 C16,15.5522847 15.5522847,16 15,16 L3,16 Z M14,7.98596191 L14,4 L4,4 L4,13 L8,9 L11,11 L14,7.98596191 Z M5.00445557,14.0159912 L13.9989319,13.9965973 L13.9989319,10.0073883 L10.9996948,13 L8.03204346,10.999939 L5.00445557,14.0159912 Z M8.02558001,6.50008481 C8.02558001,7.32848985 7.35406986,8 6.52566482,8 C5.69725976,8 5.02574961,7.32848985 5.02574961,6.50008481 C5.02574961,5.67167975 5.69725976,5 6.52566482,5 C7.35406986,5 8.02558001,5.67167975 8.02558001,6.50008481 Z" id="Combined-Shape"></path>
        </g>
    </g>
</svg>