<svg width="24" height="24" viewBox="0 0 24 24" fill="none" xmlns="http://www.w3.org/2000/svg">
<rect width="24" height="24"/>
<path fill-rule="evenodd" clip-rule="evenodd" d="M1 7.15682C1 5.96564 1.98803 5 3.18987 5H20.8101C22.0196 5 23 5.96228 23 7.15682V16.8432C23 18.0344 22.012 19 20.8101 19H3.18987C1.98044 19 1 18.0377 1 16.8432V7.15682ZM3 7V17H21V7H3Z" fill="#948FFE"/>
<path d="M8.60157 11.335C8.54063 11.1533 8.38536 11.0227 8.1961 10.994L6.99669 10.8106L6.45997 9.66798C6.41719 9.57657 6.34922 9.50099 6.26309 9.44884C6.18399 9.40079 6.09258 9.3756 6.00001 9.3756C5.90684 9.3756 5.81602 9.40079 5.73692 9.44884C5.65079 9.50099 5.58282 9.57657 5.54004 9.66798L5.00333 10.8106L3.80391 10.994C3.61465 11.0227 3.45938 11.1533 3.39844 11.335C3.33751 11.5166 3.38321 11.7141 3.5168 11.8512L4.39981 12.7565L4.19122 14.0338C4.16719 14.1815 4.20879 14.3309 4.30547 14.4445C4.40274 14.5588 4.54395 14.6244 4.69336 14.6244C4.77891 14.6244 4.86387 14.6022 4.93946 14.5606L6.00001 13.9746L7.06055 14.5611C7.13614 14.6027 7.2211 14.625 7.30665 14.625C7.45606 14.625 7.59727 14.5594 7.69454 14.4451C7.79122 14.3315 7.83282 14.182 7.80879 14.0344L7.6002 12.757L8.48321 11.8518C8.6168 11.7147 8.66192 11.5166 8.60157 11.335Z" fill="#948FFE"/>
<path fill-rule="evenodd" clip-rule="evenodd" d="M11.7369 9.48154C11.816 9.43411 11.9068 9.40924 12 9.40924C12.0932 9.40924 12.184 9.43411 12.2631 9.48154C12.3492 9.53302 12.4172 9.60764 12.46 9.69788L12.9967 10.8258L14.1961 11.0074C14.3854 11.0358 14.5406 11.1648 14.6016 11.3441C14.6619 11.5234 14.6168 11.7183 14.4832 11.8537L13.6002 12.7473L13.8088 14.0083C13.8328 14.1541 13.7912 14.3016 13.6945 14.4138C13.5973 14.5266 13.4561 14.5914 13.3066 14.5914C13.2211 14.5914 13.1361 14.5694 13.0606 14.5283L12 13.9493L10.9395 14.5277C10.8639 14.5688 10.7789 14.5908 10.6934 14.5908C10.544 14.5908 10.4027 14.526 10.3055 14.4132C10.2088 14.301 10.1672 14.1535 10.1912 14.0077L10.3998 12.7468L9.5168 11.8531C9.38321 11.7177 9.33751 11.5228 9.39844 11.3435C9.45938 11.1642 9.61465 11.0352 9.80391 11.0069L11.0033 10.8258L11.54 9.69788C11.5828 9.60764 11.6508 9.53302 11.7369 9.48154ZM12.0459 10.7595C12.0367 10.7402 12.0182 10.7308 12.0001 10.7308C11.982 10.7308 11.9636 10.7402 11.9544 10.7595L11.5975 11.5113C11.5903 11.5262 11.5763 11.537 11.5596 11.5393L10.757 11.6605C10.7167 11.6666 10.7 11.7156 10.7287 11.7446L11.3123 12.3358C11.3236 12.3472 11.3287 12.3631 11.326 12.3786L11.1887 13.2112C11.1836 13.2436 11.2095 13.2692 11.2385 13.2692C11.2464 13.2692 11.2549 13.2672 11.2628 13.2628L11.9759 12.8732C11.9834 12.8692 11.9919 12.8671 12.0001 12.8671C12.0083 12.8671 12.0169 12.8692 12.0244 12.8732L12.7375 13.2628C12.7453 13.2672 12.7535 13.2692 12.7617 13.2692C12.7911 13.2692 12.817 13.2432 12.8116 13.2112L12.6743 12.3786C12.6716 12.3631 12.6767 12.3472 12.6879 12.3358L13.2713 11.7446C13.3 11.7156 13.2836 11.6666 13.2429 11.6605L12.4407 11.5393C12.4243 11.537 12.41 11.5265 12.4028 11.5113L12.0459 10.7595Z" fill="#948FFE"/>
<path fill-rule="evenodd" clip-rule="evenodd" d="M17.7369 9.48154C17.816 9.43411 17.9068 9.40924 18 9.40924C18.0932 9.40924 18.184 9.43411 18.2631 9.48154C18.3492 9.53302 18.4172 9.60764 18.46 9.69788L18.9967 10.8258L20.1961 11.0074C20.3854 11.0358 20.5406 11.1648 20.6016 11.3441C20.6619 11.5234 20.6168 11.7183 20.4832 11.8537L19.6002 12.7473L19.8088 14.0083C19.8328 14.1541 19.7912 14.3016 19.6945 14.4138C19.5973 14.5266 19.4561 14.5914 19.3067 14.5914C19.2211 14.5914 19.1361 14.5694 19.0606 14.5283L18 13.9493L16.9395 14.5277C16.8639 14.5688 16.7789 14.5908 16.6934 14.5908C16.544 14.5908 16.4027 14.526 16.3055 14.4132C16.2088 14.301 16.1672 14.1535 16.1912 14.0077L16.3998 12.7468L15.5168 11.8531C15.3832 11.7177 15.3375 11.5228 15.3985 11.3435C15.4594 11.1642 15.6147 11.0352 15.8039 11.0069L17.0033 10.8258L17.5401 9.69788C17.5828 9.60764 17.6508 9.53302 17.7369 9.48154ZM18.0459 10.7595C18.0367 10.7402 18.0182 10.7308 18.0001 10.7308C17.982 10.7308 17.9636 10.7402 17.9544 10.7595L17.5975 11.5113C17.5903 11.5262 17.5763 11.537 17.5596 11.5393L16.757 11.6605C16.7167 11.6666 16.7 11.7156 16.7287 11.7446L17.3123 12.3358C17.3236 12.3472 17.3287 12.3631 17.326 12.3786L17.1887 13.2112C17.1836 13.2436 17.2095 13.2692 17.2385 13.2692C17.2464 13.2692 17.2549 13.2672 17.2628 13.2628L17.9759 12.8732C17.9834 12.8692 17.9919 12.8671 18.0001 12.8671C18.0083 12.8671 18.0169 12.8692 18.0244 12.8732L18.7375 13.2628C18.7453 13.2672 18.7535 13.2692 18.7617 13.2692C18.7911 13.2692 18.817 13.2432 18.8116 13.2112L18.6743 12.3786C18.6716 12.3631 18.6767 12.3472 18.688 12.3358L19.2713 11.7446C19.3 11.7156 19.2836 11.6666 19.2429 11.6605L18.4407 11.5393C18.4243 11.537 18.41 11.5265 18.4028 11.5113L18.0459 10.7595Z" fill="#948FFE"/>
</svg>
