<?xml version="1.0" encoding="UTF-8"?>
<svg width="24px" height="24px" viewBox="0 0 24 24" version="1.1" xmlns="http://www.w3.org/2000/svg" xmlns:xlink="http://www.w3.org/1999/xlink">
    <!-- Generator: Sketch 53.2 (72643) - https://sketchapp.com -->
    <title>viewIconQrScanner</title>
    <desc>Created with Sketch.</desc>
    <g id="viewIconQrScanner" stroke="none" stroke-width="1" fill="none" fill-rule="evenodd">
        <path d="M16,2 L20.0092049,2 C21.1086907,2 22,2.89821238 22,3.99079514 L22,8 L20,8 L20,4 L16,4 L16,2 Z M8,2 L8,4 L4,4 L4,8 L2,8 L2,3.99079514 C2,2.89130934 2.89821238,2 3.99079514,2 L8,2 Z M16,22 L16,20 L20,20 L20,16 L22,16 L22,20.0092049 C22,21.1086907 21.1017876,22 20.0092049,22 L16,22 Z M8,22 L3.99079514,22 C2.89130934,22 2,21.1017876 2,20.0092049 L2,16 L4,16 L4,20 L8,20 L8,22 Z" id="Combined-Shape" fill="#948FFE"></path>
        <rect id="Rectangle" fill="#948FFE" x="2" y="11" width="20" height="2"></rect>
        <path d="M5.5,14.5 L5.5,18.5 L9.5,18.5 L9.5,14.5 L5.5,14.5 Z M6.5,15.5 L8.5,15.5 L8.5,17.5 L6.5,17.5 L6.5,15.5 Z" id="Combined-Shape" stroke="#948FFE" fill="#948FFE"></path>
        <rect id="Rectangle" fill="#948FFE" x="5" y="7" width="8" height="3"></rect>
        <rect id="Rectangle" fill="#948FFE" x="11" y="14" width="8" height="3"></rect>
        <path d="M14.5,5.5 L14.5,9.5 L18.5,9.5 L18.5,5.5 L14.5,5.5 Z M15.5,6.5 L17.5,6.5 L17.5,8.5 L15.5,8.5 L15.5,6.5 Z" id="Combined-Shape" stroke="#948FFE" fill="#948FFE"></path>
    </g>
</svg>