<?xml version="1.0" encoding="UTF-8"?>
<svg width="24px" height="24px" viewBox="0 0 24 24" version="1.1" xmlns="http://www.w3.org/2000/svg" xmlns:xlink="http://www.w3.org/1999/xlink">
    <!-- Generator: Sketch 48.1 (47250) - http://www.bohemiancoding.com/sketch -->
    <title>viewIconRow</title>
    <desc>Created with Sketch.</desc>
    <defs></defs>
    <g id="Page-1" stroke="none" stroke-width="1" fill="none" fill-rule="evenodd">
        <g id="viewIconRow" fill="#948FFE">
            <g id="Group" transform="translate(1.000000, 1.000000)">
                <polygon id="Shape-Copy" points="2 6.99399201 2 5 -1.77635684e-15 5 -1.77635684e-15 6.99399201"></polygon>
                <polygon id="Path-Copy" points="22 6.99399201 22 5 20 5 20 6.99399201"></polygon>
                <polygon id="Path" points="22 12 22 10 0 10 0 12"></polygon>
                <polygon id="Path-Copy-2" points="17 1.99399201 17 0 15 0 15 1.99399201"></polygon>
                <polygon id="Path-Copy-3" points="12 1.99399201 12 0 10 0 10 1.99399201"></polygon>
                <polygon id="Path-Copy-4" points="12 6.99399201 12 5 10 5 10 6.99399201"></polygon>
                <polygon id="Path-Copy-5" points="22 2 22 0 20 0 20 2"></polygon>
                <polygon id="Path-Copy-6" points="7 1.99399201 7 0 5 0 5 1.99399201"></polygon>
                <polygon id="Path-Copy-7" points="2 1.99399201 2 0 0 0 0 1.99399201"></polygon>
                <polygon id="Shape-Copy" points="2 16.993992 2 15 -1.77635684e-15 15 -1.77635684e-15 16.993992"></polygon>
                <polygon id="Path-Copy" points="22 16.993992 22 15 20 15 20 16.993992"></polygon>
                <polygon id="Path-Copy-2" points="17 21.993992 17 20 15 20 15 21.993992"></polygon>
                <polygon id="Path-Copy-3" points="12 21.993992 12 20 10 20 10 21.993992"></polygon>
                <polygon id="Path-Copy-4" points="12 16.993992 12 15 10 15 10 16.993992"></polygon>
                <polygon id="Path-Copy-5" points="22 22 22 20 20 20 20 22"></polygon>
                <polygon id="Path-Copy-6" points="7 21.993992 7 20 5 20 5 21.993992"></polygon>
                <polygon id="Path-Copy-7" points="2 21.993992 2 20 0 20 0 21.993992"></polygon>
            </g>
        </g>
    </g>
</svg>