<?xml version="1.0" encoding="UTF-8"?>
<svg width="24px" height="24px" viewBox="0 0 24 24" version="1.1" xmlns="http://www.w3.org/2000/svg" xmlns:xlink="http://www.w3.org/1999/xlink">
    <!-- Generator: Sketch 48.1 (47250) - http://www.bohemiancoding.com/sketch -->
    <title>viewIconTextInput</title>
    <desc>Created with Sketch.</desc>
    <defs></defs>
    <g id="Page-1" stroke="none" stroke-width="1" fill="none" fill-rule="evenodd">
        <g id="viewIconTextInput" fill="#948FFE">
            <path d="M2,8.00276013 C2,6.89666625 2.89821238,6 3.99079514,6 L20.0092049,6 C21.1086907,6 22,6.89354265 22,8.00276013 L22,16.9972399 C22,18.1033337 21.1017876,19 20.0092049,19 L3.99079514,19 C2.89130934,19 2,18.1064574 2,16.9972399 L2,8.00276013 Z M4,8 L4,17 L20,17 L20,8 L4,8 Z M8,15 L8,10 L9,10 L9,15 L8,15 Z M6,10 L6,9 L8,9 L8,10 L6,10 Z M9,10 L9,9 L11,9 L11,10 L9,10 Z M9,16 L9,15 L11,15 L11,16 L9,16 Z M6,16 L6,15.0001676 L8,15.0001676 L8,16 L6,16 Z" id="Combined-Shape"></path>
        </g>
    </g>
</svg>