<?xml version="1.0" encoding="UTF-8"?>
<svg width="24px" height="24px" viewBox="0 0 24 24" version="1.1" xmlns="http://www.w3.org/2000/svg" xmlns:xlink="http://www.w3.org/1999/xlink">
    <!-- Generator: Sketch 48.1 (47250) - http://www.bohemiancoding.com/sketch -->
    <title>viewIconWebViewer</title>
    <desc>Created with Sketch.</desc>
    <defs></defs>
    <g id="Page-1" stroke="none" stroke-width="1" fill="none" fill-rule="evenodd">
        <g id="viewIconWebViewer" fill="#948FFE">
            <path d="M2.5,4 C1.677,4 1,4.677 1,5.5 L1,19.5 C1,20.323 1.677,21 2.5,21 L21.5,21 C22.323,21 23,20.323 23,19.5 L23,5.5 C23,4.677 22.323,4 21.5,4 L2.5,4 Z M8.99005127,6.00690425 L11.0056152,8.99749756 L3,8.99749756 L3,6.00690425 L8.99005127,6.00690425 Z M11.0005188,6.00690425 L20.9973755,6.00690425 L20.9973755,9.01922607 L13.0014038,8.99749756 L11.0005188,6.00690425 Z M4,7.5 C4,7.776 4.224,8 4.5,8 C4.776,8 5,7.776 5,7.5 C5,7.224 4.776,7 4.5,7 C4.224,7 4,7.224 4,7.5 Z M6,7.5 C6,7.776 6.224,8 6.5,8 C6.776,8 7,7.776 7,7.5 C7,7.224 6.776,7 6.5,7 C6.224,7 6,7.224 6,7.5 Z M8,7.5 C8,7.776 8.224,8 8.5,8 C8.776,8 9,7.776 9,7.5 C9,7.224 8.776,7 8.5,7 C8.224,7 8,7.224 8,7.5 Z M3,11 L21,11 L21,19 L3,19 L3,11 Z" id="Page-1"></path>
        </g>
    </g>
</svg>