<?xml version="1.0" encoding="UTF-8"?>
<svg width="24px" height="24px" viewBox="0 0 24 24" version="1.1" xmlns="http://www.w3.org/2000/svg" xmlns:xlink="http://www.w3.org/1999/xlink">
    <!-- Generator: Sketch 55.2 (78181) - https://sketchapp.com -->
    <title>viewIconDupilcate</title>
    <desc>Created with Sketch.</desc>
    <g id="viewIconDupilcate" stroke="none" stroke-width="1" fill="none" fill-rule="evenodd">
        <g id="Group-2">
            <path d="M16,7 L14,7 L14,6 L6,6 L6,15 L8,15 L8,17 L5,17 C4.44771525,17 4,16.5522847 4,16 L4,5 C4,4.44771525 4.44771525,4 5,4 L15,4 C15.5522847,4 16,4.44771525 16,5 L16,7 Z" id="Combined-Shape" fill="#BDBBFF"></path>
            <path d="M9,7 L19,7 C19.5522847,7 20,7.44771525 20,8 L20,19 C20,19.5522847 19.5522847,20 19,20 L9,20 C8.44771525,20 8,19.5522847 8,19 L8,8 C8,7.44771525 8.44771525,7 9,7 Z M10,9 L10,18 L18,18 L18,9 L10,9 Z M11,11 L17,11 L17,13 L11,13 L11,11 Z M11,14 L17,14 L17,16 L11,16 L11,14 Z" id="Combined-Shape" fill="#BDBBFF"></path>
            <rect id="Rectangle-29" x="0" y="0" width="24" height="24"></rect>
        </g>
    </g>
</svg>
