<?xml version="1.0" encoding="UTF-8"?>
<svg width="24px" height="24px" viewBox="0 0 24 24" version="1.1" xmlns="http://www.w3.org/2000/svg" xmlns:xlink="http://www.w3.org/1999/xlink">
    <!-- Generator: Sketch 53.2 (72643) - https://sketchapp.com -->
    <title>viewIconGyroscope</title>
    <desc>Created with Sketch.</desc>
    <g id="viewIconGyroscope" stroke="none" stroke-width="1" fill="none" fill-rule="evenodd">
        <path d="M12,22 C6.4771525,22 2,17.5228475 2,12 C2,6.4771525 6.4771525,2 12,2 C17.5228475,2 22,6.4771525 22,12 C22,17.5228475 17.5228475,22 12,22 Z M12,20 C16.418278,20 20,16.418278 20,12 C20,7.581722 16.418278,4 12,4 C7.581722,4 4,7.581722 4,12 C4,16.418278 7.581722,20 12,20 Z M21,4 C20.4477153,4 20,3.55228475 20,3 C20,2.44771525 20.4477153,2 21,2 C21.5522847,2 22,2.44771525 22,3 C22,3.55228475 21.5522847,4 21,4 Z M3,22 C2.44771525,22 2,21.5522847 2,21 C2,20.4477153 2.44771525,20 3,20 C3.55228475,20 4,20.4477153 4,21 C4,21.5522847 3.55228475,22 3,22 Z" id="Combined-Shape" fill="#948FFE"></path>
        <path d="M12.0492193,9.47253522 C11.5230831,9.06849046 11.0092797,8.72257062 10.507809,8.43477569 C10.9564488,8.0800874 11.4184942,7.75591422 11.882437,7.46791792 C12.4519219,7.8272431 12.9692161,8.18251329 13.4343198,8.53372848 C12.9984116,8.77595227 12.5307834,9.09041136 12.0492193,9.47253522 Z M11.2395218,10.1687149 C11.1379123,10.2629051 11.0361281,10.3598785 10.9343262,10.4595947 C8.77907178,12.5706944 7.32897825,14.9956436 8.08084331,15.8425558 C8.83270837,16.6894679 11.103433,15.5678134 13.2586874,13.4567137 C13.473361,13.2464382 13.6777691,13.0331255 13.8711858,12.8187447 C14.2083944,13.294107 14.5071314,13.7973354 14.767397,14.3284299 C14.5734741,14.5404893 14.373564,14.7476558 14.1684569,14.9485609 C11.2947844,17.7633604 7.87903206,18.8217162 6.53916057,17.3124647 C5.19928908,15.8032133 6.44268049,12.2978773 9.31635302,9.48307782 C9.44310831,9.35891936 9.57210538,9.23713042 9.70301482,9.11787307 C10.259233,9.46348478 10.771402,9.8137654 11.2395218,10.1687149 Z M14.6317086,11.8978351 C14.9954008,11.4141992 15.2973077,10.9395455 15.52898,10.4967923 C15.9350763,10.997697 16.261464,11.5145177 16.5081432,12.0472545 C16.2279667,12.4937542 15.9149527,12.9393627 15.5749191,13.3740041 C15.363028,12.9430211 15.0604655,12.4353739 14.6317086,11.8978351 Z M12.9159214,6.88774175 C14.8837907,5.90014275 16.7299647,5.65039339 17.5557833,6.58060794 C18.2987231,7.41746656 18.0598384,9.03361508 17.2096232,10.7874118 C16.9183256,10.3611406 16.5237863,9.87061324 15.9915842,9.34199092 C16.1194008,8.83274534 16.0919789,8.42993224 15.8857099,8.19758767 C15.6314902,7.9112308 15.1471785,7.87245831 14.5224592,8.0582214 C13.9233247,7.57654396 13.3878121,7.18638407 12.9159214,6.88774175 Z" id="Combined-Shape" fill="#948FFE"></path>
        <path d="M8.11526114,9.38737024 C7.77312102,9.71902887 7.34434661,10.2521897 6.82893792,10.9868526 C5.87693051,9.03352859 5.66457809,7.21547322 6.61689436,6.41727462 C8.16882087,5.11650344 12.2260813,7.01674698 15.0208031,9.90605248 C17.8155249,12.795358 18.8230096,16.1920863 17.2710831,17.4928575 C15.7191565,18.7936286 12.1955019,17.5058671 9.40078006,14.6165616 C8.59324252,13.781694 7.890374,12.8533226 7.33655019,11.9238073 C7.50024218,11.6850517 7.6614556,11.4565838 7.82019043,11.2384033 C8.00715664,10.9814189 8.24769014,10.681901 8.54179091,10.3398495 C9.00836701,11.1872918 9.74899533,12.1697309 10.6844538,13.1368487 C12.7804952,15.3038279 14.9415608,16.6733726 15.81242,15.9434486 C16.6832791,15.2135246 15.5905067,12.9485733 13.4944653,10.7815942 C11.398424,8.61461503 8.97344125,7.46627644 8.22198276,8.09612298 C7.94160769,8.33112367 7.92146339,8.79081592 8.11526114,9.38737024 Z" id="Combined-Shape" fill="#948FFE"></path>
    </g>
</svg>