<svg width="24" height="24" viewBox="0 0 24 24" fill="none" xmlns="http://www.w3.org/2000/svg">
<rect width="24" height="24" fill="white"/>
<path fill-rule="evenodd" clip-rule="evenodd" d="M3 5C2.44772 5 2 5.44772 2 6V18C2 18.5523 2.44772 19 3 19H17C17.5523 19 18 18.5523 18 18V6C18 5.44772 17.5523 5 17 5H3ZM16 7H4V17H16V7Z" fill="#948FFE"/>
<path fill-rule="evenodd" clip-rule="evenodd" d="M20.6838 7.43874L16 9V15L20.6838 16.5613C21.3313 16.7771 22 16.2951 22 15.6126V8.38742C22 7.70487 21.3313 7.2229 20.6838 7.43874ZM18 11L20 10V14L18 13V11Z" fill="#948FFE"/>
<path d="M8 9.5C8 10.3284 7.32843 11 6.5 11C5.67157 11 5 10.3284 5 9.5C5 8.67157 5.67157 8 6.5 8C7.32843 8 8 8.67157 8 9.5Z" fill="#948FFE"/>
<rect x="5" y="14" width="10" height="2" fill="#948FFE"/>
</svg>
