<svg width="24" height="24" viewBox="0 0 24 24" fill="none" xmlns="http://www.w3.org/2000/svg">
<rect width="24" height="24" fill="white"/>
<path d="M15 12C15 14.2105 13.9714 15 12 15C10.0286 15 9 14.2105 9 12H7C7 14.5126 8.65714 16.5905 11 16.9516V19H13V17C15.3429 16.6463 17 14.52 17 12H15Z" fill="#948FFE"/>
<path d="M13.9933 12C13.9933 13.1067 13.1067 14 12 14C10.8933 14 10 13.1067 10 12V8C10 6.89333 10.8933 6 12 6C13.1067 6 14 6.89333 14 8L13.9933 12Z" fill="#948FFE"/>
<path fill-rule="evenodd" clip-rule="evenodd" d="M12 22C17.5228 22 22 17.5228 22 12C22 6.47715 17.5228 2 12 2C6.47715 2 2 6.47715 2 12C2 17.5228 6.47715 22 12 22ZM12 20C16.4183 20 20 16.4183 20 12C20 7.58172 16.4183 4 12 4C7.58172 4 4 7.58172 4 12C4 16.4183 7.58172 20 12 20Z" fill="#E1DFFF"/>
<path d="M22 12C22 13.9778 21.4135 15.9112 20.3147 17.5557C19.2159 19.2002 17.6541 20.4819 15.8268 21.2388C13.9996 21.9957 11.9889 22.1937 10.0491 21.8079C8.10929 21.422 6.32746 20.4696 4.92893 19.0711C3.53041 17.6725 2.578 15.8907 2.19215 13.9509C1.8063 12.0111 2.00433 10.0004 2.76121 8.17317C3.51808 6.3459 4.79981 4.78412 6.4443 3.6853C8.08879 2.58649 10.0222 2 12 2L12 3.98603C10.415 3.98603 8.86557 4.45605 7.54768 5.33663C6.22979 6.21722 5.20262 7.46883 4.59606 8.93319C3.9895 10.3975 3.8308 12.0089 4.14002 13.5634C4.44924 15.118 5.2125 16.546 6.33327 17.6667C7.45404 18.7875 8.882 19.5508 10.4366 19.86C11.9911 20.1692 13.6025 20.0105 15.0668 19.4039C16.5312 18.7974 17.7828 17.7702 18.6634 16.4523C19.544 15.1344 20.014 13.585 20.014 12H22Z" fill="#948FFE"/>
<circle cx="12" cy="3" r="1" fill="#948FFE"/>
<circle cx="21" cy="12" r="1" fill="#948FFE"/>
</svg>
