<?xml version="1.0" encoding="UTF-8"?>
<svg width="24px" height="24px" viewBox="0 0 24 24" version="1.1" xmlns="http://www.w3.org/2000/svg" xmlns:xlink="http://www.w3.org/1999/xlink">
    <!-- Generator: Sketch 48.1 (47250) - http://www.bohemiancoding.com/sketch -->
    <title>viewIconTexttoSpeech</title>
    <desc>Created with Sketch.</desc>
    <defs></defs>
    <g id="Page-1" stroke="none" stroke-width="1" fill="none" fill-rule="evenodd">
        <g id="viewIconTexttoSpeech">
            <g id="Group-6" transform="translate(1.000000, 1.000000)">
                <path d="M3,4 L13,4 L13,21 C13,21.5522847 12.5522847,22 12,22 L1,22 C0.44771525,22 6.76353751e-17,21.5522847 0,21 L0,7 L3,4 Z M4,6 L2,8 L2,20 L11,20 L11,6 L4,6 Z" id="Combined-Shape" fill="#948FFE"></path>
                <path d="M9.99658936,16.9728076 L8.46504499,16.9728076 L7.85623231,15.3889434 L5.06901181,15.3889434 L4.49349358,16.9728076 L3,16.9728076 L5.71587527,10 L7.2046125,10 L9.99658936,16.9728076 Z M7.40437916,14.2141252 L6.44359667,11.6266714 L5.50183957,14.2141252 L7.40437916,14.2141252 Z" id="A" fill="#948FFE"></path>
                <path d="M9,0 L21,0 C21.5522847,8.7960173e-16 22,0.44771525 22,1 L22,8 C22,8.55228475 21.5522847,9 21,9 L10.484183,9 C10.224527,9 9.97505174,9.10099689 9.78852245,9.28162938 L8,11.0136108 L8,1 C8,0.44771525 8.44771525,1.01453063e-16 9,0 Z" id="Rectangle-13" fill="#948FFE"></path>
                <rect id="Rectangle-14" fill="#FFFFFF" x="10" y="2" width="10" height="1"></rect>
                <rect id="Rectangle-14" fill="#FFFFFF" x="10" y="4" width="10" height="1"></rect>
                <rect id="Rectangle-14" fill="#FFFFFF" x="10" y="6" width="8" height="1"></rect>
            </g>
        </g>
    </g>
</svg>