<?xml version="1.0" encoding="UTF-8"?>
<svg width="24px" height="24px" viewBox="0 0 24 24" version="1.1" xmlns="http://www.w3.org/2000/svg" xmlns:xlink="http://www.w3.org/1999/xlink">
    <!-- Generator: Sketch 48.1 (47250) - http://www.bohemiancoding.com/sketch -->
    <title>viewIconYandex</title>
    <desc>Created with Sketch.</desc>
    <defs></defs>
    <g id="Page-1" stroke="none" stroke-width="1" fill="none" fill-rule="evenodd">
        <g id="viewIconYandex" fill="#D9252A">
            <g id="Group-2" transform="translate(6.000000, 1.000000)">
                <g id="Group">
                    <path d="M9.92017457,0 C9.7550422,0 9.65191711,0.0809260348 9.62811901,0.198288588 C9.60445312,0.316179206 6.83157794,8.75823002 6.63008736,9.46148122 C6.48716656,9.95997504 6.02125266,11.717509 5.90953381,12.1395653 L4.94518194,9.51059131 C4.71077067,8.78700959 2.46489117,2.5217767 2.39904976,2.27160568 C2.36282376,2.13404462 2.29949438,1.96295141 2.05794367,1.96295141 L0.237389085,1.96295141 C0.0594321885,1.96295141 -0.0413130979,2.15793958 0.016198975,2.27886658 C0.0619442101,2.37563458 3.35044488,11.1112898 4.67890766,14.4483996 L4.67890766,21.7858694 C4.67890766,21.919734 4.73258559,22 4.86625158,22 L6.59055608,22 C6.6973831,22 6.77763558,21.919734 6.77763558,21.7858694 L6.77763558,14.5063548 C7.88504046,11.4178318 11.9303207,0.43169353 11.9743472,0.308654273 C12.0278929,0.158287628 12.0121597,0 11.7850201,0 L9.92017457,0 Z" id="Fill-7"></path>
                </g>
            </g>
        </g>
    </g>
</svg>