<?xml version="1.0" encoding="UTF-8"?>
<svg width="24px" height="24px" viewBox="0 0 24 24" version="1.1" xmlns="http://www.w3.org/2000/svg" xmlns:xlink="http://www.w3.org/1999/xlink">
    <!-- Generator: Sketch 48.2 (47327) - http://www.bohemiancoding.com/sketch -->
    <title>viewIconSpreadsheet</title>
    <desc>Created with Sketch.</desc>
    <defs></defs>
    <g id="Platform-Icons" stroke="none" stroke-width="1" fill="none" fill-rule="evenodd">
        <g id="viewIconSpreadsheet" fill-rule="nonzero">
            <g id="airtable-seeklogo.com" transform="translate(3.000000, 4.000000)">
                <path d="M8.03381695,0.201005913 L1.32612204,3.13865216 C0.953105084,3.3020401 0.956969494,3.86281162 1.33232542,4.0202797 L8.06808811,6.84738615 C8.65995251,7.0958047 9.31903727,7.0958047 9.9108,6.84738615 L16.6466644,4.0202797 C17.0219187,3.86281162 17.0258847,3.3020401 16.6527661,3.13865216 L9.9451729,0.201005913 C9.3331729,-0.0670019706 8.64571528,-0.0670019706 8.03381695,0.201005913" id="Shape" fill="#FFBF00"></path>
                <path d="M9.58704405,8.39120841 L9.58704405,15.4537005 C9.58704405,15.7896252 9.90707794,16.0196385 10.2020949,15.8958597 L17.7077898,12.8123698 C17.8791457,12.7404705 17.9915186,12.5652429 17.9915186,12.3702106 L17.9915186,5.30771853 C17.9915186,4.97179379 17.6714847,4.7417806 17.3764678,4.86555935 L9.87077285,7.94904923 C9.69951867,8.02094854 9.58704405,8.19617622 9.58704405,8.39120841" id="Shape" fill="#26B5F8"></path>
                <path d="M7.83441359,8.75561302 L5.60688813,9.89394694 L5.38071865,10.0096531 L0.678549153,12.3942775 C0.380481356,12.5464715 4.06779661e-05,12.316566 4.06779661e-05,11.9661107 L4.06779661e-05,5.33738238 C4.06779661e-05,5.21058989 0.0614644068,5.10112643 0.143837288,5.01867903 C0.178210169,4.98219121 0.217159322,4.95216141 0.257633898,4.92837436 C0.370006779,4.85701323 0.530277966,4.83796207 0.666549153,4.89500792 L7.79698983,7.88517939 C8.15943052,8.03737347 8.18790511,8.57489607 7.83441359,8.75561302" id="Shape" fill="#ED3049"></path>
                <path d="M7.83441359,8.75561302 L5.60688813,9.89394694 L0.143837288,5.01867903 C0.178210169,4.98219121 0.217159322,4.95216141 0.257633898,4.92837436 C0.370006779,4.85701323 0.530277966,4.83796207 0.666549153,4.89500792 L7.79698983,7.88517939 C8.15943052,8.03737347 8.18790511,8.57489607 7.83441359,8.75561302" id="Shape" fill-opacity="0.25" fill="#000000"></path>
            </g>
        </g>
    </g>
</svg>