<?xml version="1.0" encoding="UTF-8"?>
<svg width="24px" height="24px" viewBox="0 0 24 24" version="1.1" xmlns="http://www.w3.org/2000/svg" xmlns:xlink="http://www.w3.org/1999/xlink">
    <!-- Generator: Sketch 48.1 (47250) - http://www.bohemiancoding.com/sketch -->
    <title>viewIconFirebaseDB</title>
    <desc>Created with Sketch.</desc>
    <defs></defs>
    <g id="Page-1" stroke="none" stroke-width="1" fill="none" fill-rule="evenodd">
        <g id="viewIconFirebaseDB">
            <g id="Group" transform="translate(4.000000, 1.000000)">
                <path d="M10.2613347,7.93002306 L8.10666552,9.96764447 L6.10724829,5.8690777 L7.14182632,3.51209293 C7.40370277,3.03958704 7.83097176,3.03868301 8.09284822,3.51209293 L10.2613347,7.93002306 L10.2613347,7.93002306 Z" id="Shape" fill="#FFA000"></path>
                <polygon id="Shape" fill="#F57F17" points="8.10666552 9.9675842 0.0547948014 17.5801725 6.10724829 5.86901743"></polygon>
                <path d="M12.6179856,4.81552214 C13.0029131,4.43950629 13.400887,4.56775789 13.502293,5.1005324 L15.5981349,17.478198 L8.65052171,21.7099584 C8.40738461,21.8464065 7.76354569,21.9055903 7.76354569,21.9055903 C7.76354569,21.9055903 7.17586552,21.834172 6.95188287,21.707849 L0.0545575945,17.5797506 L12.6179856,4.81552214 L12.6179856,4.81552214 Z" id="Shape" fill="#FFCA28"></path>
                <path d="M6.10724829,5.86901743 L0.0547948014,17.5801725 L2.75065159,0.464008022 C2.84992269,-0.0691883633 3.14856622,-0.120537218 3.4150089,0.350100351 L6.10724829,5.86901743 L6.10724829,5.86901743 Z" id="Shape" fill="#FFA000"></path>
            </g>
        </g>
    </g>
</svg>