<?xml version="1.0" encoding="UTF-8"?>
<svg width="24px" height="24px" viewBox="0 0 24 24" version="1.1" xmlns="http://www.w3.org/2000/svg" xmlns:xlink="http://www.w3.org/1999/xlink">
    <!-- Generator: Sketch 48.2 (47327) - http://www.bohemiancoding.com/sketch -->
    <title>viewIconLocationSensor</title>
    <desc>Created with Sketch.</desc>
    <defs>
        <polygon id="path-1" points="-0.0002 0.997 13.9998 0.997 13.9998 17.9963 -0.0002 17.9963"></polygon>
        <polygon id="path-3" points="0.0002 0.5348 16 0.5348 16 10.9998 0.0002 10.9998"></polygon>
    </defs>
    <g id="Platform-Icons" stroke="none" stroke-width="1" fill="none" fill-rule="evenodd">
        <g id="viewIconLocationSensor">
            <g id="Page-1" transform="translate(4.000000, 0.000000)">
                <path d="M8,9.0002 C7.447,9.0002 7,8.5522 7,8.0002 C7,7.4482 7.447,7.0002 8,7.0002 C8.553,7.0002 9,7.4482 9,8.0002 C9,8.5522 8.553,9.0002 8,9.0002 M11,8.0002 C11,6.3432 9.657,5.0002 8,5.0002 C6.343,5.0002 5,6.3432 5,8.0002 C5,9.6572 6.343,11.0002 8,11.0002 C9.657,11.0002 11,9.6572 11,8.0002" id="Fill-1" fill="#948FFE"></path>
                <g id="Group-5" transform="translate(1.000000, 0.003500)">
                    <mask id="mask-2" fill="white">
                        <use xlink:href="#path-1"></use>
                    </mask>
                    <g id="Clip-4"></g>
                    <path d="M8.8818,13.2003 C8.6038,13.5283 8.3378,13.8233 8.0948,14.0783 C7.5588,14.6393 7.1388,14.9963 6.9998,14.9963 C6.8608,14.9963 6.4368,14.6353 5.8948,14.0663 C5.6538,13.8143 5.3928,13.5233 5.1178,13.2003 C4.6858,12.6893 4.2308,12.1073 3.8028,11.4983 C2.8218,10.1013 1.9998,8.5753 1.9998,7.5073 C1.9998,5.0163 4.4718,2.9963 7.1098,2.9963 C9.7478,2.9963 11.9998,5.0163 11.9998,7.5073 C11.9998,8.5753 11.1778,10.1013 10.1968,11.4983 C9.7698,12.1073 9.3148,12.6893 8.8818,13.2003 M6.9998,0.9963 C3.1338,0.9963 -0.0002,3.9563 -0.0002,7.6073 C-0.0002,8.9403 0.8328,10.6823 1.9248,12.3593 C2.2848,12.9133 2.6718,13.4573 3.0698,13.9793 C3.2698,14.2433 3.4708,14.4993 3.6728,14.7483 C4.0838,15.2553 4.4888,15.7243 4.8738,16.1423 C5.8968,17.2563 6.7468,17.9963 6.9998,17.9963 C7.2528,17.9963 8.1038,17.2563 9.1258,16.1423 C9.5058,15.7293 9.9058,15.2663 10.3138,14.7653 C10.5198,14.5113 10.7258,14.2493 10.9308,13.9793 C11.3278,13.4573 11.7148,12.9133 12.0748,12.3593 C13.1668,10.6823 13.9998,8.9403 13.9998,7.6073 C13.9998,3.9563 10.8658,0.9963 6.9998,0.9963" id="Fill-3" fill="#948FFE" mask="url(#mask-2)"></path>
                </g>
                <g id="Group-8" transform="translate(0.000000, 12.003500)">
                    <mask id="mask-4" fill="white">
                        <use xlink:href="#path-3"></use>
                    </mask>
                    <g id="Clip-7"></g>
                    <path d="M12.1815796,2.1468 C13.2965796,2.8728 14.0002,3.8798 14.0002,4.9998 C14.0002,7.2088 11.3132,8.9998 8.0002,8.9998 C4.6862,8.9998 2.0002,7.2088 2.0002,4.9998 C2.0002,3.8798 2.6992,2.8728 3.8132,2.1468 C3.4192,1.6248 3.0342,1.0858 2.6742,0.5348 C1.0382,1.6328 0.0002,3.2228 0.0002,4.9998 C0.0002,8.3138 3.5822,10.9998 8.0002,10.9998 C12.4182,10.9998 16.0002,8.3138 16.0002,4.9998 C16.0002,3.2228 14.9622,1.6328 13.3262,0.5348 C12.9662,1.0858 12.5765796,1.6248 12.1815796,2.1468 Z" id="Fill-6" fill="#948FFE" mask="url(#mask-4)"></path>
                </g>
                <path d="M11.4861,15.0484 C11.1231,15.4964 10.7661,15.9084 10.4211,16.2914 C10.7811,16.4874 11.0001,16.7254 11.0001,16.9854 C11.0001,17.5674 9.9331,18.0494 8.5301,18.1484 C8.3571,18.1604 7.6421,18.1604 7.4701,18.1484 C6.0661,18.0494 5.0001,17.5674 5.0001,16.9854 C5.0001,16.7254 5.2191,16.4874 5.5791,16.2914 C5.2291,15.9034 4.8671,15.4854 4.4981,15.0304 C4.4681,14.9924 4.4371,14.9514 4.4061,14.9124 C3.5421,15.4484 3.0001,16.1804 3.0001,17.0254 C3.0001,18.7504 5.2391,19.958374 8.0001,19.958374 C10.7621,19.958374 12.9781,18.7504 12.9781,17.0254 C12.9781,16.1904 12.4381,15.4644 11.5791,14.9304 C11.5491,14.9694 11.5171,15.0104 11.4861,15.0484 Z" id="Fill-9" fill="#948FFE"></path>
            </g>
        </g>
    </g>
</svg>