<?xml version="1.0" encoding="UTF-8"?>
<svg width="24px" height="24px" viewBox="0 0 24 24" version="1.1" xmlns="http://www.w3.org/2000/svg" xmlns:xlink="http://www.w3.org/1999/xlink">
    <!-- Generator: Sketch 53.2 (72643) - https://sketchapp.com -->
    <title>viewIconMagnetometer</title>
    <desc>Created with Sketch.</desc>
    <g id="viewIconMagnetometer" stroke="none" stroke-width="1" fill="none" fill-rule="evenodd">
        <path d="M17,5 L17,12.5294118 C17,15.2908355 14.7614237,17.5294118 12,17.5294118 C9.23857625,17.5294118 7,15.2908355 7,12.5294118 L7,5 L9,5 L9,12 C9,13.6568542 10.3431458,15 12,15 C13.6568542,15 15,13.6568542 15,12 L15,5 L17,5 Z M19,5 L21,5 L21,13 C21,17.9705627 16.9705627,22 12,22 C7.02943725,22 3,17.9705627 3,13 L3,5 L5,5 L5,12.7647059 C5,16.6306991 8.13400675,19.7647059 12,19.7647059 C15.8659932,19.7647059 19,16.6306991 19,12.7647059 L19,5 Z" id="Combined-Shape" fill="#948FFE"></path>
        <path d="M4,3 L8,3 C8.55228475,3 9,3.44771525 9,4 L9,9 L3,9 L3,4 C3,3.44771525 3.44771525,3 4,3 Z" id="Rectangle" fill="#948FFE"></path>
        <path d="M16,3 L20,3 C20.5522847,3 21,3.44771525 21,4 L21,9 L15,9 L15,4 C15,3.44771525 15.4477153,3 16,3 Z" id="Rectangle" fill="#948FFE"></path>
    </g>
</svg>