<?xml version="1.0" encoding="UTF-8"?>
<svg width="24px" height="24px" viewBox="0 0 24 24" version="1.1" xmlns="http://www.w3.org/2000/svg" xmlns:xlink="http://www.w3.org/1999/xlink">
    <!-- Generator: Sketch 48.1 (47250) - http://www.bohemiancoding.com/sketch -->
    <title>viewIconStackNavigator Copy</title>
    <desc>Created with Sketch.</desc>
    <defs></defs>
    <g id="Page-1" stroke="none" stroke-width="1" fill="none" fill-rule="evenodd">
        <g id="viewIconStackNavigator-Copy">
            <g id="Group" transform="translate(1.000000, 1.000000)">
                <path d="M4,1 C3.44771525,1 3,1.44771525 3,2 L3,20 L19,20 L19,2 C19,1.44771525 18.5522847,1 18,1 L20,1 C20.5522847,1 21,1.44771525 21,2 L21,21 C21,21.5522847 20.5522847,22 20,22 L2,22 C1.44771525,22 1,21.5522847 1,21 L1,2 C1,1.44771525 1.44771525,1 2,1 L4,1 Z" id="Combined-Shape" fill="#948FFE"></path>
                <rect id="Rectangle-6" fill="#948FFE" x="0" y="0" width="22" height="6"></rect>
                <rect id="Rectangle-11" fill="#FFFFFF" opacity="0.943783967" x="6" y="2" width="13" height="2"></rect>
                <path d="M2.31801948,2.70190296 L2.31801948,2.31801948 L3.85355339,2.31801948 L3.85355339,2.70190296 L2.70190296,2.70190296 L2.70190296,3.85355339 L2.31801948,3.85355339 L2.31801948,2.70190296 Z" id="Combined-Shape" fill="#FFFFFF" transform="translate(3.085786, 3.085786) rotate(-45.000000) translate(-3.085786, -3.085786) "></path>
            </g>
        </g>
    </g>
</svg>