<?xml version="1.0" encoding="UTF-8"?>
<svg width="24px" height="24px" viewBox="0 0 24 24" version="1.1" xmlns="http://www.w3.org/2000/svg" xmlns:xlink="http://www.w3.org/1999/xlink">
    <!-- Generator: Sketch 48.1 (47250) - http://www.bohemiancoding.com/sketch -->
    <title>viewIconSound</title>
    <desc>Created with Sketch.</desc>
    <defs></defs>
    <g id="Page-1" stroke="none" stroke-width="1" fill="none" fill-rule="evenodd">
        <g id="viewIconSound" fill="#948FFE">
            <path d="M6,8 L11.0897703,3 L13,3 L13,21 L11.0868347,21 L6,16 L1.84197184,16.0115967 C1.38621483,15.9675967 1.03503975,15.5966876 1.01632509,15.1435967 L0.996091933,8.67890909 C0.996091933,8.25127273 1.39020065,8 1.82173869,8 L6,8 Z M7,10 L3,10 C3,10 3,14 3,14 L7,14 L11,18 L11,6 L7,10 Z M18.4075693,11.544 L18.4075693,11.544 C18.4145414,13.2770909 17.3437693,14.8367273 15.7126582,15.4658182 L15.1075509,13.9447273 C16.1166747,13.5527273 16.7760913,12.5796364 16.7603122,11.5058182 C16.7430654,10.4305455 16.0564943,9.47709091 15.0359949,9.11490909 L15.586426,7.57381818 C17.2762497,8.176 18.4061014,9.76436364 18.4075693,11.544 L18.4075693,11.544 Z M22.9985322,11.868 L22.9985322,11.868 C23.0128434,15.0469091 21.0507397,17.9047273 18.0633663,19.0610909 L17.4586259,17.5396364 C19.8423598,16.608 21.3945758,14.3098182 21.3516421,11.7698182 C21.3087085,9.23018182 19.6801661,6.98290909 17.266342,6.132 L17.8167731,4.59090909 C20.9215719,5.69018182 22.9955966,8.60218182 23,11.8694545 L22.9985322,11.868 Z" id="Page-1"></path>
        </g>
    </g>
</svg>