<?xml version="1.0" encoding="UTF-8"?>
<svg width="24px" height="24px" viewBox="0 0 24 24" version="1.1" xmlns="http://www.w3.org/2000/svg" xmlns:xlink="http://www.w3.org/1999/xlink">
    <!-- Generator: Sketch 53.2 (72643) - https://sketchapp.com -->
    <title>viewIconAccelerometer</title>
    <desc>Created with Sketch.</desc>
    <g id="viewIconAccelerometer" stroke="none" stroke-width="1" fill="none" fill-rule="evenodd">
        <path d="M7.98847733,4.97874155 L6.14702225,10.0380978 L4.97279014,6.8119216 C4.84222764,6.45320407 5.02718383,6.05656424 5.38590136,5.92600174 L7.98847733,4.97874155 Z M12,3.51866671 L13.4837965,2.97860895 C13.842514,2.84804645 14.2391538,3.03300264 14.3697164,3.39172017 L14.7848411,4.53226596 L12,3.51866671 Z M17.8529777,12.9619022 L19.0272099,16.1880784 C19.1577724,16.5467959 18.9728162,16.9434358 18.6140986,17.0739983 L16.0115227,18.0212584 L17.8529777,12.9619022 Z M12,19.4813333 L10.5162035,20.021391 C10.157486,20.1519536 9.76084615,19.9669974 9.63028365,19.6082798 L9.21515893,18.467734 L12,19.4813333 Z" id="Combined-Shape" fill="#948FFE" opacity="0.346609933"></path>
        <g id="screen" transform="translate(12.000000, 11.500000) rotate(20.000000) translate(-12.000000, -11.500000) translate(7.000000, 4.000000)" fill="#948FFE">
            <path d="M8.00203451,10.0077718 L8.00203451,1.99682617 L2.00024414,1.99682617 L2.00024414,10.0077718 L8.00203451,10.0077718 Z M8.00203451,11.9946289 L2.00024414,11.9946289 L2.00024414,13.0140219 L8.00203451,13.0140219 L8.00203451,11.9946289 Z M0.6912,0 L9.3088,0 C9.69053922,-7.01243569e-17 10,0.309460781 10,0.6912 L10,14.3088 C10,14.6905392 9.69053922,15 9.3088,15 L0.6912,15 C0.309460781,15 2.68794176e-16,14.6905392 2.22044605e-16,14.3088 L0,0.6912 C-4.67495713e-17,0.309460781 0.309460781,2.92168962e-16 0.6912,2.22044605e-16 Z" id="Combined-Shape"></path>
        </g>
        <path d="M21.1213203,1 C21.845178,1.72385763 22.2928932,2.72385763 22.2928932,3.82842712 C22.2928932,4.93299662 21.845178,5.93299662 21.1213203,6.65685425 L20.4142136,5.94974747 C20.9571068,5.40685425 21.2928932,4.65685425 21.2928932,3.82842712 C21.2928932,3 20.9571068,2.25 20.4142136,1.70710678 L21.1213203,1 Z M19.7071068,2.41421356 C20.0690356,2.77614237 20.2928932,3.27614237 20.2928932,3.82842712 C20.2928932,4.38071187 20.0690356,4.88071187 19.7071068,5.24264069 L19,4.53553391 C19.1809644,4.3545695 19.2928932,4.1045695 19.2928932,3.82842712 C19.2928932,3.55228475 19.1809644,3.30228475 19,3.12132034 L19.7071068,2.41421356 Z" id="Combined-Shape" fill="#948FFE" transform="translate(20.646447, 3.828427) rotate(-44.000000) translate(-20.646447, -3.828427) "></path>
        <path d="M4.12132034,17 C4.84517797,17.7238576 5.29289322,18.7238576 5.29289322,19.8284271 C5.29289322,20.9329966 4.84517797,21.9329966 4.12132034,22.6568542 L3.41421356,21.9497475 C3.95710678,21.4068542 4.29289322,20.6568542 4.29289322,19.8284271 C4.29289322,19 3.95710678,18.25 3.41421356,17.7071068 L4.12132034,17 Z M2.70710678,18.4142136 C3.06903559,18.7761424 3.29289322,19.2761424 3.29289322,19.8284271 C3.29289322,20.3807119 3.06903559,20.8807119 2.70710678,21.2426407 L2,20.5355339 C2.18096441,20.3545695 2.29289322,20.1045695 2.29289322,19.8284271 C2.29289322,19.5522847 2.18096441,19.3022847 2,19.1213203 L2.70710678,18.4142136 Z" id="Combined-Shape" fill="#948FFE" transform="translate(3.646447, 19.828427) scale(-1, -1) rotate(-44.000000) translate(-3.646447, -19.828427) "></path>
    </g>
</svg>