<?xml version="1.0" encoding="UTF-8"?>
<svg width="24px" height="24px" viewBox="0 0 24 24" version="1.1" xmlns="http://www.w3.org/2000/svg" xmlns:xlink="http://www.w3.org/1999/xlink">
    <!-- Generator: Sketch 55.2 (78181) - https://sketchapp.com -->
    <title>viewIconPdf</title>
    <desc>Created with Sketch.</desc>
    <g id="viewIconPdf" stroke="none" stroke-width="1" fill="none" fill-rule="evenodd">
        <path d="M20,18.9822494 L20,20.5555556 C20,21.9 19.1,23 18,23 L4,23 C2.9,23 2,21.9 2,20.5555556 L2,3.44444444 C2,2.1 2.9,1 4,1 L18,1 C19.1,1 20,2.1 20,3.44444444 L20,9 L18,9 L18,3 L4,3 L4,21 L18,21 L18,18.9658939 L20,18.9822494 Z" id="Combined-Shape" fill="#948FFE"></path>
        <path d="M7,10 L21,10 C21.5522847,10 22,10.4477153 22,11 L22,17 C22,17.5522847 21.5522847,18 21,18 L20.4614955,18 L7,18 C6.44771525,18 6,17.5522847 6,17 L6,11 C6,10.4477153 6.44771525,10 7,10 Z" id="Rectangle" fill="#948FFE"></path>
        <path d="M9.86140845,13.8222849 L10.5369014,13.8222849 C10.964507,13.8222849 11.2247887,13.596615 11.2247887,13.2524683 C11.2247887,12.8970381 10.964507,12.6770099 10.5369014,12.6770099 L9.86140845,12.6770099 L9.86140845,13.8222849 Z M10.6422535,14.493653 L9.85521127,14.493653 L9.85521127,16 L9,16 L9,12 L10.6422535,12 C11.5098592,12 12.0861972,12.5246827 12.0861972,13.2468265 C12.0861972,13.9746121 11.5098592,14.493653 10.6422535,14.493653 Z M13.5921127,15.2778561 L14.2738028,15.2778561 C14.9926761,15.2778561 15.5938028,14.8716502 15.5938028,14.0028209 C15.5938028,13.1339915 14.9988732,12.7221439 14.28,12.7221439 L13.5921127,12.7221439 L13.5921127,15.2778561 Z M14.3047887,16 L12.7369014,16 L12.7369014,12 L14.3109859,12 C15.5628169,12 16.48,12.7390691 16.48,14.0028209 C16.48,15.2665726 15.5566197,16 14.3047887,16 Z M18.0850704,16 L17.223662,16 L17.223662,12 L20,12 L20,12.7390691 L18.0788732,12.7390691 L18.0788732,13.7263752 L19.7892958,13.7263752 L19.7892958,14.4428773 L18.0850704,14.4428773 L18.0850704,16 Z" id="PDF" fill="#FFFFFF" fill-rule="nonzero"></path>
    </g>
</svg>