<?xml version="1.0" encoding="UTF-8"?>
<svg width="24px" height="24px" viewBox="0 0 24 24" version="1.1" xmlns="http://www.w3.org/2000/svg" xmlns:xlink="http://www.w3.org/1999/xlink">
    <!-- Generator: Sketch 48.2 (47327) - http://www.bohemiancoding.com/sketch -->
    <title>viewIconGoogleMap</title>
    <desc>Created with Sketch.</desc>
    <defs></defs>
    <g id="Platform-Icons" stroke="none" stroke-width="1" fill="none" fill-rule="evenodd">
        <g id="viewIconGoogleMap">
            <g id="Page-1" transform="translate(2.000000, 1.000000)">
                <g id="Group-6" transform="translate(0.000000, 2.000000)">
                    <path d="M-0.0002,17.1523 L-0.0002,2.5223 C-0.0002,1.6723 0.6898,0.9813 1.5408,0.9813 L16.1708,0.9813 L-0.0002,17.1523 Z" id="Fill-1" fill="#0DAB68"></path>
                    <polygon id="Fill-7" fill="#5C84C3" points="1.8475 19 9.0095 11.839 16.1705 19"></polygon>
                    <polygon id="Fill-11" fill="#D2D2D2" points="18.0184 17.1523 10.8574 9.9903 18.0184 2.8293"></polygon>
                    <path d="M-0.0002,17.4595 L-0.0002,17.1525 L16.1708,0.9815 L16.4778,0.9815 C17.3278,0.9815 18.0188,1.6715 18.0188,2.5225 L18.0188,2.8295 L1.8478,19.0005 L1.5408,19.0005 C0.6898,19.0005 -0.0002,18.3095 -0.0002,17.4595" id="Fill-4" fill="#FEE13E"></path>
                    <path d="M16.1707,19 L8.8997,11.729 L10.7477,9.881 L18.0187,17.152 L18.0187,17.459 C18.0187,18.31 17.3277,19 16.4777,19 L16.1707,19 Z" id="Fill-9" fill="#FEFEFE"></path>
                    <path d="M6.91,4.873 L5.963,4.873 L4.497,4.873 L4.497,5.71 L5.925,5.71 C5.723,6.305 5.16,6.734 4.497,6.734 C3.664,6.734 2.988,6.059 2.988,5.226 C2.988,4.393 3.664,3.718 4.497,3.718 C4.874,3.718 5.219,3.856 5.482,4.085 L6.15,3.433 C5.715,3.032 5.135,2.787 4.497,2.787 C3.149,2.787 2.057,3.878 2.057,5.226 C2.057,6.573 3.149,7.665 4.497,7.665 C5.679,7.665 6.663,6.825 6.888,5.71 C6.92,5.553 6.936,5.392 6.936,5.226 C6.936,5.106 6.927,4.988 6.91,4.873" id="Fill-13" fill="#F0EFEF"></path>
                </g>
                <path d="M14.7889,15.4177 L14.7809,15.4177 C14.6209,15.4177 14.5369,15.2957 14.5179,15.1647 C14.1269,12.3227 13.3809,11.2557 12.7429,10.1977 C11.6839,8.4427 9.9389,6.4997 9.9389,4.5697 C9.9389,2.1407 11.9279,0.0007 14.7779,0.0007 L14.7929,0.0007 C17.6429,0.0007 19.6319,2.1407 19.6319,4.5697 C19.6319,6.4997 17.8869,8.4427 16.8269,10.1977 C16.1889,11.2557 15.4439,12.3227 15.0529,15.1647 C15.0339,15.2957 14.9499,15.4177 14.7889,15.4177" id="Fill-15" fill="#E14E3C"></path>
                <path d="M13.6053,3.449 C14.2563,2.798 15.3143,2.798 15.9653,3.449 C16.6163,4.099 16.6163,5.157 15.9653,5.808 C15.3143,6.459 14.2563,6.459 13.6053,5.808 C12.9553,5.157 12.9553,4.099 13.6053,3.449" id="Fill-17" fill="#893128"></path>
            </g>
        </g>
    </g>
</svg>