<?xml version="1.0" encoding="UTF-8"?>
<svg width="24px" height="24px" viewBox="0 0 24 24" version="1.1" xmlns="http://www.w3.org/2000/svg" xmlns:xlink="http://www.w3.org/1999/xlink">
    <!-- Generator: Sketch 53.2 (72643) - https://sketchapp.com -->
    <title>viewIconSetting</title>
    <desc>Created with Sketch.</desc>
    <g id="viewIconSetting" stroke="none" stroke-width="1" fill="none" fill-rule="evenodd">
        <g id="Group-121">
            <rect id="Rectangle-43-Copy-8" x="0" y="0" width="24" height="24"></rect>
            <path d="M20.8790172,10.5713659 L20.8040114,10.0977856 L19.3571887,9.61433896 C19.2308632,9.22363517 19.0729562,8.84082438 18.8854416,8.47577286 L19.5683893,7.11225608 L19.2881044,6.72155229 C18.7196393,5.94606446 18.0406393,5.26726595 17.268869,4.70686253 L16.8800231,4.42666082 L15.5161016,5.10940583 C15.1489679,4.92194694 14.7680173,4.76408682 14.3771975,4.63779873 L13.8955812,3.1953519 L13.425808,3.12234159 C12.9027411,3.03946503 12.4507324,3 12.0006976,3 C11.5625057,3 11.1085231,3.03946503 10.5736133,3.12431484 L10.0998923,3.1992984 L9.61827607,4.64766499 C9.21956096,4.77789958 8.83663655,4.9357597 8.47937202,5.11729884 L7.11742436,4.43258057 L6.72857844,4.71278228 C5.95483426,5.2731857 5.27583427,5.95001096 4.71131684,6.72747205 L4.43103196,7.11817584 L5.11397962,8.48169261 C4.92843893,8.84674414 4.77053195,9.22758167 4.64420637,9.61828546 L3.19738372,10.0977856 L3.12237791,10.5713659 C3.03947674,11.0942776 3,11.5599649 3,12 C3,12.4420083 3.03947674,12.9076957 3.12237791,13.4266608 L3.19738372,13.9002412 L4.64420637,14.3836878 C4.77053195,14.7743916 4.92843893,15.1572024 5.11595346,15.5222539 L4.43695347,16.8818242 L4.71723835,17.2685815 C5.00936625,17.6750713 5.31136334,18.0322298 5.63902031,18.3617628 C5.94496508,18.66959 6.30222961,18.9714975 6.73055228,19.2852445 L7.1193982,19.5654462 L8.48134586,18.8827012 C8.84847957,19.0701601 9.22943015,19.2299934 9.62024991,19.3543083 L10.1018662,20.8026749 L10.5755871,20.8776584 C11.0947063,20.960535 11.5605319,21 12.0006976,21 C12.4408632,21 12.9066888,20.960535 13.4277818,20.8776584 L13.9015028,20.8026749 L14.383119,19.3543083 C14.7699911,19.2280202 15.1509417,19.0701601 15.5200492,18.8846744 L16.8839707,19.5674194 L17.2728167,19.2872177 C17.6971917,18.9813637 18.0544562,18.6794563 18.3643486,18.363736 C18.6860841,18.042096 18.9861073,17.6829643 19.2861306,17.2705547 L19.5664155,16.8798509 L18.8834678,15.5163341 C19.0709823,15.1512826 19.2288893,14.7704451 19.3552149,14.377768 L20.8020375,13.8943214 L20.8770434,13.4207411 C20.9599445,12.9017759 20.9994213,12.4360886 20.9994213,11.9960535 C21.0053428,11.5599649 20.965866,11.0923043 20.8790172,10.5713659 Z M19.5861538,11.984214 L19.5861538,11.9940802 C19.5861538,12.2604692 19.5683893,12.5308046 19.5348341,12.8208726 L18.8360957,13.0537163 L18.2182847,13.2628809 L18.0268225,13.8844552 C17.9182614,14.2435869 17.7741713,14.5928524 17.5984998,14.9243587 L17.2945289,15.4985749 L17.9143138,16.7358036 C17.7327207,16.9647007 17.5531015,17.1679456 17.365587,17.3554045 L17.3616393,17.359351 C17.1780725,17.5448367 16.9747673,17.7244025 16.7458021,17.9039684 L15.5121539,17.2863407 L14.9397411,17.5843017 C14.602215,17.7599211 14.2469243,17.9059417 13.8857121,18.0203903 L13.267901,18.2137689 L13.0665696,18.8254769 L12.8336568,19.5240079 C12.5454766,19.5595264 12.2730871,19.5753124 12.0066191,19.5753124 C11.7421249,19.5753124 11.4697354,19.5575532 11.1795813,19.5240079 L10.9466685,18.8254769 L10.7433633,18.2078492 L10.1216046,18.0164438 C9.75447084,17.9039684 9.40510166,17.7599211 9.08139236,17.5882482 L8.5050319,17.288314 L7.92274993,17.5783819 L7.26546215,17.9059417 C7.03649704,17.7244025 6.83319181,17.5448367 6.64567728,17.3573778 C6.45421507,17.1659724 6.27459589,16.9627275 6.09695054,16.7377768 L6.71278774,15.5044946 L6.41276449,14.9322517 C6.23314531,14.5889059 6.08708135,14.2376672 5.98049415,13.8864284 L5.78903194,13.2648542 L4.47445638,12.8287656 C4.43892731,12.5406709 4.42313661,12.2683622 4.42313661,12.0019733 C4.42313661,11.7355843 4.44090114,11.4652488 4.47445638,11.1751809 L5.78508426,10.7390923 L5.97654647,10.1194913 C6.08708135,9.76233282 6.23314531,9.40912081 6.40881681,9.06972155 L6.70884007,8.49747862 L6.42065984,7.91931594 L6.09300287,7.2622232 C6.43842437,6.83205437 6.83121797,6.43937733 7.26151448,6.09405832 L8.49713655,6.71168603 L9.07152317,6.40977856 C9.40312782,6.23613243 9.75644468,6.09011182 10.1216046,5.97566323 L10.7394156,5.78228459 L10.9446947,5.16860338 L11.1776074,4.47007235 C11.4756569,4.43652708 11.7460726,4.41876781 12.0026714,4.41876781 C12.2671656,4.41876781 12.5395551,4.43652708 12.8277353,4.47007235 L13.2659272,5.77833808 L13.8837382,5.96974348 C14.2429766,6.08221881 14.5962934,6.22823942 14.9338196,6.40188555 L15.5062324,6.70181978 L16.7398806,6.08419206 C17.1701771,6.42951107 17.5649446,6.82218812 17.9143138,7.25433019 L17.2984766,8.48761237 L17.5945521,9.05788204 C17.7702236,9.3972813 17.9182614,9.75246656 18.0307701,10.1135716 L18.2242062,10.7311993 L18.8380696,10.9364175 L19.5368079,11.1692611 C19.5743108,11.4652488 19.5901015,11.7316378 19.5861538,11.984214 Z M12.0046452,8.56062267 C10.1077877,8.56062267 8.56424702,10.1037053 8.56424702,12 C8.56424702,13.8962947 10.1077877,15.4393773 12.0046452,15.4393773 C13.9015028,15.4393773 15.4450434,13.8962947 15.4450434,12 C15.4450434,10.1037053 13.9015028,8.56062267 12.0046452,8.56062267 Z M13.4317295,13.4266608 C13.0507789,13.8074984 12.5435028,14.0186363 12.0046452,14.0186363 C11.4657877,14.0186363 10.9585115,13.8094716 10.5775609,13.4266608 C10.1966104,13.0458233 9.98540979,12.5386977 9.98540979,12 C9.98540979,11.4613023 10.1946365,10.9541767 10.5775609,10.5733392 C10.9585115,10.1925016 11.4657877,9.98136374 12.0046452,9.98136374 C12.5435028,9.98136374 13.0507789,10.1905284 13.4317295,10.5733392 C13.8126801,10.95615 14.0238807,11.4613023 14.0238807,12 C14.0238807,12.5386977 13.8126801,13.0458233 13.4317295,13.4266608 Z" id="Shape" fill="#9D9CFA" fill-rule="nonzero"></path>
        </g>
    </g>
</svg>
