<?xml version="1.0" encoding="UTF-8"?>
<svg width="24px" height="24px" viewBox="0 0 24 24" version="1.1" xmlns="http://www.w3.org/2000/svg" xmlns:xlink="http://www.w3.org/1999/xlink">
    <!-- Generator: Sketch 53.2 (72643) - https://sketchapp.com -->
    <title>translation copy 4</title>
    <desc>Created with Sketch.</desc>
    <g id="translation-copy-4" stroke="none" stroke-width="1" fill="none" fill-rule="evenodd">
        <path d="M13.9004313,10 L10.1274938,10 C10.0388525,10.6448206 9.99212646,11.313917 9.99212646,12 C9.99212646,12.686083 10.0388525,13.3551794 10.1274938,14 L13.9004313,14 C13.9899434,13.3551794 14.0371704,12.686083 14.0371704,12 C14.0371704,11.313917 13.9899434,10.6448206 13.9004313,10 Z M15.8872391,10 C15.9613693,10.6183854 16,11.2542736 16,11.9031553 C16,12.6199873 15.9528549,13.3209621 15.8627863,14 L19.747965,14 C19.912494,13.3607602 20,12.6905991 20,12 C20,11.3094009 19.912494,10.6392398 19.747965,10 L15.8872391,10 Z M13.697945,19.819447 C15.9319782,19.3366225 17.8186683,17.9207159 18.9297424,16 L15.4584931,16 C15.0595404,17.4473314 14.455469,18.7452816 13.697945,19.819447 Z M13.4671997,16 L10.5567614,16 C10.9053019,17.1707483 11.4015089,18.212085 12.0065644,19.0651952 C12.6154434,18.212085 13.1156135,17.1707483 13.4671997,16 Z M13.8550706,4.21618167 C14.571876,5.29292985 15.1395864,6.57713774 15.5104232,8 L18.9297424,8 C17.8448131,6.12448073 16.0203407,4.73029285 13.8550706,4.21618167 Z M13.4671997,8 C13.1156135,6.82925175 12.6154434,5.78791503 12.0065644,4.9348048 C11.4015089,5.78791503 10.9053019,6.82925175 10.5567614,8 L13.4671997,8 Z M8.11276091,10 L4.25203497,10 C4.08750601,10.6392398 4,11.3094009 4,12 C4,12.6905991 4.08750601,13.3607602 4.25203497,14 L8.13721372,14 C8.04714513,13.3209621 8,12.6199873 8,11.9031553 C8,11.2542736 8.03863074,10.6183854 8.11276091,10 Z M10.302055,19.819447 C9.54453102,18.7452816 8.94045961,17.4473314 8.54150694,16 L5.07025756,16 C6.18133174,17.9207159 8.0680218,19.3366225 10.302055,19.819447 Z M10.1449294,4.21618167 C7.97965926,4.73029285 6.15518688,6.12448073 5.07025756,8 L8.48957678,8 C8.8604136,6.57713774 9.428124,5.29292985 10.1449294,4.21618167 Z M12,22 C6.4771525,22 2,17.5228475 2,12 C2,6.4771525 6.4771525,2 12,2 C17.5228475,2 22,6.4771525 22,12 C22,17.5228475 17.5228475,22 12,22 Z" id="Combined-Shape" fill="#9CA9E1"></path>
    </g>
</svg>