<?xml version="1.0" encoding="UTF-8"?>
<svg width="24px" height="24px" viewBox="0 0 24 24" version="1.1" xmlns="http://www.w3.org/2000/svg" xmlns:xlink="http://www.w3.org/1999/xlink">
    <!-- Generator: Sketch 48.2 (47327) - http://www.bohemiancoding.com/sketch -->
    <title>viewIconSharing</title>
    <desc>Created with Sketch.</desc>
    <defs></defs>
    <g id="Platform-Icons" stroke="none" stroke-width="1" fill="none" fill-rule="evenodd">
        <g id="viewIconSharing" fill="#948FFE">
            <g id="Group" transform="translate(1.000000, 2.000000)">
                <path d="M13.76,13.7326984 L7.54730159,10.7415873 C7.59428571,10.5009524 7.6215873,10.2526984 7.6215873,10 C7.6215873,9.7447619 7.59428571,9.49904762 7.54730159,9.2584127 L13.76,6.2647619 C14.4590476,7.09079365 15.5009524,7.61904762 16.6666667,7.61904762 C18.767619,7.61904762 20.4761905,5.91047619 20.4761905,3.80952381 C20.4761905,1.70857143 18.767619,0 16.6666667,0 C14.5657143,0 12.8571429,1.70857143 12.8571429,3.80952381 C12.8571429,4.06222222 12.8844444,4.31047619 12.9314286,4.55111111 L6.71619048,7.54222222 C6.01714286,6.71619048 4.9752381,6.19047619 3.80952381,6.19047619 C1.70857143,6.19047619 0,7.89904762 0,10 C0,12.1009524 1.70857143,13.8095238 3.80952381,13.8095238 C4.9752381,13.8095238 6.01714286,13.2838095 6.71619048,12.4552381 L12.9314286,15.4488889 C12.8844444,15.6895238 12.8571429,15.9377778 12.8571429,16.1904762 C12.8571429,18.2914286 14.5657143,20 16.6666667,20 C18.767619,20 20.4761905,18.2914286 20.4761905,16.1904762 C20.4761905,14.0895238 18.767619,12.3809524 16.6666667,12.3809524 C15.5034921,12.3809524 14.4590476,12.9066667 13.76,13.7326984 Z M18.5714286,3.80952381 C18.5714286,4.86095238 17.7155556,5.71428571 16.6666667,5.71428571 C15.6177778,5.71428571 14.7619048,4.86095238 14.7619048,3.80952381 C14.7619048,2.75809524 15.6177778,1.9047619 16.6666667,1.9047619 C17.7155556,1.9047619 18.5714286,2.75809524 18.5714286,3.80952381 Z M1.9047619,10 C1.9047619,8.94857143 2.75809524,8.0952381 3.80952381,8.0952381 C4.86095238,8.0952381 5.71428571,8.94857143 5.71428571,10 C5.71428571,11.0514286 4.86095238,11.9047619 3.80952381,11.9047619 C2.75809524,11.9047619 1.9047619,11.0514286 1.9047619,10 Z M14.7619048,16.1904762 C14.7619048,15.1390476 15.6177778,14.2857143 16.6666667,14.2857143 C17.7155556,14.2857143 18.5714286,15.1390476 18.5714286,16.1904762 C18.5714286,17.2419048 17.7155556,18.0952381 16.6666667,18.0952381 C15.6177778,18.0952381 14.7619048,17.2419048 14.7619048,16.1904762 Z" id="Page-1"></path>
            </g>
        </g>
    </g>
</svg>
