<?xml version="1.0" encoding="UTF-8"?>
<svg width="24px" height="24px" viewBox="0 0 24 24" version="1.1" xmlns="http://www.w3.org/2000/svg" xmlns:xlink="http://www.w3.org/1999/xlink">
    <!-- Generator: Sketch 48.1 (47250) - http://www.bohemiancoding.com/sketch -->
    <title>viewIconWebAPI</title>
    <desc>Created with Sketch.</desc>
    <defs></defs>
    <g id="Page-1" stroke="none" stroke-width="1" fill="none" fill-rule="evenodd">
        <g id="viewIconWebAPI" fill="#948FFE">
            <path d="M2.49749038,3 C1.67586732,3 1,3.67586732 1,4.49749038 L1,18.4740672 C1,19.2956903 1.67586732,20 2.49749038,20 L21.5025096,20 C22.3241327,20 23,19.2956903 23,18.4740672 L23,4.49749038 C23,3.67586732 22.3241327,3 21.5025096,3 L2.49749038,3 Z M3.49916346,4 C3.22362523,4 3,4.22362523 3,4.49916346 C3,4.77470169 3.22362523,4.99832692 3.49916346,4.99832692 C3.77470169,4.99832692 3.99832692,4.77470169 3.99832692,4.49916346 C3.99832692,4.22362523 3.77470169,4 3.49916346,4 L3.49916346,4 Z M5.49916346,4 C5.22362523,4 5,4.22362523 5,4.49916346 C5,4.77470169 5.22362523,4.99832692 5.49916346,4.99832692 C5.77470169,4.99832692 5.99832692,4.77470169 5.99832692,4.49916346 C5.99832692,4.22362523 5.77470169,4 5.49916346,4 L5.49916346,4 Z M7.49916346,4 C7.22362523,4 7,4.22362523 7,4.49916346 C7,4.77470169 7.22362523,4.99832692 7.49916346,4.99832692 C7.77470169,4.99832692 7.99832692,4.77470169 7.99832692,4.49916346 C7.99832692,4.22362523 7.77470169,4 7.49916346,4 L7.49916346,4 Z M3.01111294,6 L20.3305969,6 L21.0019989,6 L21.0019989,18 L3.01111294,18 L3.01111294,6 Z" id="Page-1"></path>
            <path d="M6.36,12.22 L6.2,12.82 L7.59,12.82 L7.44,12.22 C7.3466662,11.8933317 7.2566671,11.5466685 7.17,11.18 C7.0833329,10.8133315 6.9966671,10.4600017 6.91,10.12 L6.87,10.12 C6.7899996,10.4666684 6.70833375,10.8216648 6.625,11.185 C6.54166625,11.5483351 6.4533338,11.8933317 6.36,12.22 Z M4,15.52 L6.04,9 L7.81,9 L9.85,15.52 L8.29,15.52 L7.89,13.97 L5.9,13.97 L5.5,15.52 L4,15.52 Z M10.74,15.52 L10.74,9 L12.98,9 C13.3400018,9 13.6766651,9.03499965 13.99,9.105 C14.3033349,9.17500035 14.5766655,9.29166585 14.81,9.455 C15.0433345,9.61833415 15.2283327,9.83499865 15.365,10.105 C15.5016674,10.3750013 15.57,10.7066647 15.57,11.1 C15.57,11.4800019 15.5016674,11.8099986 15.365,12.09 C15.2283327,12.3700014 15.0433345,12.5999991 14.81,12.78 C14.5766655,12.9600009 14.3066682,13.0933329 14,13.18 C13.6933318,13.2666671 13.3666684,13.31 13.02,13.31 L12.21,13.31 L12.21,15.52 L10.74,15.52 Z M12.21,12.14 L12.93,12.14 C13.730004,12.14 14.13,11.7933368 14.13,11.1 C14.13,10.7599983 14.0233344,10.5200007 13.81,10.38 C13.5966656,10.2399993 13.290002,10.17 12.89,10.17 L12.21,10.17 L12.21,12.14 Z M16.88,15.52 L16.88,9 L18.35,9 L18.35,15.52 L16.88,15.52 Z" id="API"></path>
        </g>
    </g>
</svg>