<?xml version="1.0" encoding="UTF-8"?>
<svg width="24px" height="24px" viewBox="0 0 24 24" version="1.1" xmlns="http://www.w3.org/2000/svg" xmlns:xlink="http://www.w3.org/1999/xlink">
    <!-- Generator: Sketch 48.1 (47250) - http://www.bohemiancoding.com/sketch -->
    <title>viewIconTimer</title>
    <desc>Created with Sketch.</desc>
    <defs>
        <path d="M12.3265092,11.0265201 L15.4543253,8.26844531 C15.549421,8.18459094 15.6747333,8.14338368 15.8010371,8.15443382 L15.8290782,8.1568871 C15.9296617,8.16568702 16.0123557,8.23983935 16.0320265,8.33887246 C16.0534008,8.44648191 16.03425,8.55819445 15.9782545,8.65254045 L13.8499332,12.2385229 C13.9466509,12.4732346 14,12.7303871 14,13 C14,14.1045695 13.1045695,15 12,15 C10.8954305,15 10,14.1045695 10,13 C10,11.8954305 10.8954305,11 12,11 C12.1111889,11 12.2202587,11.0090734 12.3265092,11.0265201 Z M11,4.05492878 L11,3 L10.0000658,3 L10.0000658,1.56652361 C9.9977761,1.41706713 10.0552943,1.27293777 10.1597287,1.16643985 C10.2641631,1.05994193 10.4067793,0.999982314 10.5556122,1 L13.4444536,1 C13.7512734,1 14,1.24979821 14,1.55793992 L14,3 L13,3 L13,4.05492878 C17.4999505,4.55237307 21,8.36744635 21,13 C21,17.9705627 16.9705627,22 12,22 C7.02943725,22 3,17.9705627 3,13 C3,8.36744635 6.50004954,4.55237307 11,4.05492878 Z M19.889,6.59193416 C19.0954336,5.57875846 18.1137618,4.7346476 17,4.10776749 C17.1347768,4.06369311 17.2734219,4.03299473 17.414,4.01610082 C18.1021488,3.93228452 18.7894818,4.17880775 19.2742268,4.6833016 C19.7589718,5.18779544 19.9861236,5.89301385 19.889,6.59193416 Z M12,20 C15.8659932,20 19,16.8659932 19,13 C19,9.13400675 15.8659932,6 12,6 C8.13400675,6 5,9.13400675 5,13 C5,16.8659932 8.13400675,20 12,20 Z" id="path-1"></path>
    </defs>
    <g id="Page-1" stroke="none" stroke-width="1" fill="none" fill-rule="evenodd">
        <g id="viewIconTimer" fill-rule="nonzero">
            <g id="Combined-Shape">
                <use fill="#D0CEFF" fill-rule="evenodd" xlink:href="#path-1"></use>
                <use fill="#948FFE" fill-rule="evenodd" xlink:href="#path-1"></use>
            </g>
        </g>
    </g>
</svg>