<?xml version="1.0" encoding="UTF-8"?>
<svg width="24px" height="24px" viewBox="0 0 24 24" version="1.1" xmlns="http://www.w3.org/2000/svg" xmlns:xlink="http://www.w3.org/1999/xlink">
    <!-- Generator: Sketch 48.2 (47327) - http://www.bohemiancoding.com/sketch -->
    <title>viewIconLottie</title>
    <desc>Created with Sketch.</desc>
    <defs>
        <path d="M21.5587391,8.44958663 C22.1354526,9.47280784 22.1354211,11.1318342 21.5587391,12.1550019 L17.8438156,18.7461342 C17.2671057,19.7693568 15.8595878,20.5988425 14.7044108,20.5988425 L7.2879927,20.5988425 C6.1308593,20.5988425 4.72526637,19.7693012 4.14858439,18.7461342 L0.433663346,12.1550019 C-0.143049872,11.1317807 -0.1430185,9.47275432 0.433663346,8.44958663 L4.14858439,1.85845253 C4.72529782,0.835231351 6.13281565,0.00574671018 7.2879927,0.00574671018 L14.7044108,0.00574671018 C15.8615442,0.00574671018 17.2671371,0.835288425 17.8438156,1.85845253 L21.5587391,8.44958663 Z" id="path-1"></path>
        <linearGradient x1="97.1502508%" y1="0.0278719723%" x2="-1507.86542%" y2="0.0278719723%" id="linearGradient-3">
            <stop stop-color="#00D2C1" offset="0%"></stop>
            <stop stop-color="#00B7D2" offset="100%"></stop>
        </linearGradient>
        <path d="M4.26625406,0.00574671018 L5.910131,0.00574671018 C5.8656225,0.917960779 5.81252735,1.82113389 5.7502714,2.67613698 C5.6579947,3.94345244 5.55164635,5.019136 5.42912665,5.8484708 C4.89186155,9.48525726 4.09436396,12.3656575 2.96822464,13.8334265 C1.96139101,15.1456954 1.31142988,15.6446426 0.73422737,15.5755786 C0.68326455,15.5684193 0.68326455,15.5684193 0.633866805,15.5572648 C0.193203288,15.4480451 -0.077621418,14.9934558 0.0289610283,14.5419092 C0.105188665,14.2189769 0.353798361,13.9850562 0.650425875,13.917947 C0.65900236,13.9116581 0.6701186,13.9034251 0.68368726,13.8930089 C0.90223909,13.7252342 1.23325288,13.3727194 1.67754961,12.7936358 C2.56643652,11.635094 3.31108133,8.94558732 3.80582384,5.59666431 C3.92098626,4.81712718 4.02356518,3.77953744 4.11302262,2.55096143 C4.17228006,1.73713476 4.22322367,0.876557153 4.26625393,0.00574673784 L4.26625406,0.00574671018 Z M0.632270285,14.2626742 C0.624462365,14.2938751 0.630834465,14.2500611 0.650425875,14.1015068 C0.76856474,13.8251618 0.894322875,13.8224327 1.01983996,14.1440299 C0.971287635,14.0308439 0.971287635,14.0308439 0.92464275,13.9633159 C0.80469776,13.8149091 0.704913615,13.9723885 0.632270285,14.2626742 Z" id="path-4"></path>
        <path d="M16.5230893,7.10322239 L15.6157218,8.71310196 C15.2906483,8.67491295 14.9674124,8.62436994 14.6477029,8.56030068 C13.698061,8.36999397 12.8319969,8.0661628 12.0704018,7.63098456 C11.1237572,7.0900661 10.4705122,6.66584044 9.8700781,6.20963869 C9.72768055,6.10144643 9.58599215,5.9898404 9.43613605,5.86822848 C9.20678585,5.68210066 8.1728848,4.80645687 7.82560535,4.52150423 C7.01922035,3.85984421 6.12467405,3.16835196 4.9415177,2.30569978 C4.36904885,1.86693792 3.81744652,1.68765198 3.29407497,1.7017316 C2.92787838,1.71158412 2.59951613,1.8206967 2.42255762,1.94145966 C1.79800105,2.36767935 1.65025498,2.79774801 1.65025498,3.56406165 C1.65025498,4.15422132 2.03449537,4.86875035 2.70731431,5.0435488 C3.188041,5.16843897 3.5183037,5.11841298 4.02486115,4.81908822 C4.41760816,4.58701173 4.91959265,4.7251254 5.14607465,5.12757348 C5.3725567,5.53002153 5.2377714,6.04440741 4.84502441,6.27648389 C3.97282933,6.79186497 3.20437999,6.90826884 2.30382487,6.67430533 C0.78020139,6.2784708 0.00845421085,4.84333783 0.00845421085,3.56406165 C0.00845421085,2.29282943 0.333888578,1.34553901 1.51249676,0.541217189 C2.61386034,-0.210396139 4.33921456,-0.25681215 5.9090113,0.946636714 C7.1014987,1.81579541 8.0209186,2.52651471 8.8518173,3.20828999 C9.2136855,3.50521762 10.2430031,4.37697679 10.4554449,4.54937809 C10.5922145,4.66037057 10.7202154,4.76119662 10.8479473,4.85824504 C11.387333,5.26806645 11.9817513,5.65408415 12.8700024,6.16163884 C13.4690776,6.50395159 14.1733029,6.75101019 14.9628179,6.90922485 C15.4704656,7.01095659 15.9944325,7.07365173 16.5230893,7.10322239 Z" id="path-6"></path>
    </defs>
    <g id="Platform-Icons" stroke="none" stroke-width="1" fill="none" fill-rule="evenodd">
        <g id="viewIconLottie">
            <g id="lottiefilespdf-copy-2" transform="translate(1.000000, 2.000000)">
                <g id="Group-7">
                    <g id="Group-3">
                        <g id="Fill-1-Clipped">
                            <g>
                                <mask id="mask-2" fill="white">
                                    <use xlink:href="#path-1"></use>
                                </mask>
                                <g id="path-1"></g>
                                <polygon id="Fill-1" fill="url(#linearGradient-3)" fill-rule="nonzero" mask="url(#mask-2)" points="-0.148635101 20.6182401 22.139739 20.6182401 22.139739 0 -0.148635101 0"></polygon>
                            </g>
                        </g>
                    </g>
                </g>
                <g id="Group-10" transform="translate(6.192348, 0.000000)">
                    <g id="Fill-8-Clipped">
                        <g>
                            <mask id="mask-5" fill="white">
                                <use xlink:href="#path-4"></use>
                            </mask>
                            <use id="path-6" fill="#D8D8D8" xlink:href="#path-4"></use>
                            <polygon id="Fill-8" fill="#FFFFFF" fill-rule="nonzero" mask="url(#mask-5)" points="-1.74097343 17.3654077 7.7454791 17.3654077 7.7454791 -4.79886506 -1.74097343 -4.79886506"></polygon>
                        </g>
                    </g>
                </g>
                <g id="Group-13" transform="translate(2.750949, 9.105365)">
                    <g id="Fill-11-Clipped">
                        <g>
                            <mask id="mask-7" fill="white">
                                <use xlink:href="#path-6"></use>
                            </mask>
                            <g id="path-8"></g>
                            <polygon id="Fill-11" fill="#006B77" fill-rule="nonzero" mask="url(#mask-7)" points="-1.73828358 10.5901143 22.4377482 10.5901143 22.4377482 -1.77903898 -1.73828358 -1.77903898"></polygon>
                        </g>
                    </g>
                </g>
            </g>
        </g>
    </g>
</svg>