<?xml version="1.0" encoding="UTF-8"?>
<svg width="24px" height="24px" viewBox="0 0 24 24" version="1.1" xmlns="http://www.w3.org/2000/svg" xmlns:xlink="http://www.w3.org/1999/xlink">
    <!-- Generator: Sketch 48.1 (47250) - http://www.bohemiancoding.com/sketch -->
    <title>viewIconLocalStorage</title>
    <desc>Created with Sketch.</desc>
    <defs></defs>
    <g id="Page-1" stroke="none" stroke-width="1" fill="none" fill-rule="evenodd">
        <g id="viewIconLocalStorage" fill="#948FFE">
            <path d="M4,11 L4,8.9798081 C5.68212891,10.2913086 8.8812374,11 12,11 C15.1187626,11 19.2208984,9.79804688 20,8.9798081 L20,11 C20,11 17.4002336,13 12,13 C6.59976636,13 4,11.0947869 4,11 Z M4,15 L4,12.9833984 C6.06175623,14.0674594 8.8812374,15 12,15 C15.1187626,15 17.9382438,14.0674594 20,12.9833984 L20,15 C20,15 17.4002336,17 12,17 C6.59976636,17 4,15 4,15 Z M4,18.8020714 L4,16.9842529 C6.06175623,18.0683139 8.8812374,18.9921265 12,18.9921265 C15.1187626,18.9921265 17.9382438,18.0683139 20,16.9842529 L20,18.9921265 C20,18.9921265 17.4002336,21 12,21 C6.59976636,21 4,18.8020714 4,18.8020714 Z M19.9808594,6 C19.9808594,6.86682129 17.1965714,9 12,9 C6.80342857,9 4,6.73217773 4,6 C4,5.46850586 4.32734375,3 12,3 C19.2244141,3 19.9808594,5.13317871 19.9808594,6 Z M12,1 C7.03,1 2,2.5114 2,5.4 L2,18.6 C2,21.4886 7.03,23 12,23 C16.97,23 22,21.4886 22,18.6 L22,5.4 C22,2.5114 16.97,1 12,1" id="Fill-415"></path>
        </g>
    </g>
</svg>