<?xml version="1.0" encoding="UTF-8"?>
<svg width="24px" height="24px" viewBox="0 0 24 24" version="1.1" xmlns="http://www.w3.org/2000/svg" xmlns:xlink="http://www.w3.org/1999/xlink">
    <!-- Generator: Sketch 48.1 (47250) - http://www.bohemiancoding.com/sketch -->
    <title>viewIconDrawerNavigator Copy</title>
    <desc>Created with Sketch.</desc>
    <defs></defs>
    <g id="Page-1" stroke="none" stroke-width="1" fill="none" fill-rule="evenodd">
        <g id="viewIconDrawerNavigator-Copy" fill="#948FFE">
            <g id="Group" transform="translate(2.000000, 1.000000)">
                <path d="M-8.2694608e-16,21 L4.58933059e-16,0 L14,0 L14,22 L1,22 C0.44771525,22 -7.59310705e-16,21.5522847 -8.2694608e-16,21 Z M2,3 L2,5 L12,5 L12,3 L2,3 Z M2,7 L2,9 L12,9 L12,7 L2,7 Z M2,11 L2,13 L12,13 L12,11 L2,11 Z" id="Combined-Shape"></path>
                <path d="M18,22 L15,22 L15,20 L18,20 L18,2 L15,2 L15,0 L18,0 L20,0 L20,21 C20,21.5522847 19.5522847,22 19,22 L18,22 Z" id="Combined-Shape"></path>
            </g>
        </g>
    </g>
</svg>